<?xml version="1.0" encoding="utf-8"?>
<!-- Generator: Adobe Illustrator 15.1.0, SVG Export Plug-In . SVG Version: 6.00 Build 0)  -->
<!DOCTYPE svg PUBLIC "-//W3C//DTD SVG 1.1//EN" "http://www.w3.org/Graphics/SVG/1.1/DTD/svg11.dtd">
<svg version="1.1" id="Layer_1" xmlns="http://www.w3.org/2000/svg" xmlns:xlink="http://www.w3.org/1999/xlink" x="0px" y="0px"
	 width="100px" height="100px" viewBox="0 0 100 100" enable-background="new 0 0 100 100" xml:space="preserve">
<line fill="none" stroke="#030000" stroke-miterlimit="10" x1="-16.166" y1="42.206" x2="-16.679" y2="37.463"/>
<line fill="none" stroke="#030000" stroke-miterlimit="10" x1="-16.679" y1="37.463" x2="-16.166" y2="26.696"/>
<line fill="none" stroke="#030000" stroke-miterlimit="10" x1="-16.166" y1="26.696" x2="-17.469" y2="-25.156"/>
<line fill="none" stroke="#030000" stroke-miterlimit="10" x1="-17.469" y1="-25.156" x2="-20.086" y2="-31.011"/>
<line fill="none" stroke="#030000" stroke-miterlimit="10" x1="-20.086" y1="-31.011" x2="-21.016" y2="-43.189"/>
<line fill="none" stroke="#030000" stroke-miterlimit="10" x1="-21.016" y1="-43.189" x2="-17.19" y2="-44.557"/>
<line fill="none" stroke="#030000" stroke-miterlimit="10" x1="-17.19" y1="-44.557" x2="-16.827" y2="-39.814"/>
<line fill="none" stroke="#030000" stroke-miterlimit="10" x1="-16.827" y1="-39.814" x2="-14.691" y2="-39.258"/>
<line fill="none" stroke="#030000" stroke-miterlimit="10" x1="-14.691" y1="-39.258" x2="-14.691" y2="-46.009"/>
<line fill="none" stroke="#030000" stroke-miterlimit="10" x1="-14.691" y1="-46.009" x2="-8.966" y2="-46.522"/>
<line fill="none" stroke="#030000" stroke-miterlimit="10" x1="-8.966" y1="-46.522" x2="-8.592" y2="-41.779"/>
<line fill="none" stroke="#030000" stroke-miterlimit="10" x1="-8.592" y1="-41.779" x2="-5.206" y2="-41.053"/>
<line fill="none" stroke="#030000" stroke-miterlimit="10" x1="-5.206" y1="-41.053" x2="-5.546" y2="-47.206"/>
<line fill="none" stroke="#030000" stroke-miterlimit="10" x1="-5.546" y1="-47.206" x2="0.351" y2="-47.804"/>
<line fill="none" stroke="#030000" stroke-miterlimit="10" x1="0.351" y1="-47.804" x2="0.948" y2="-41.651"/>
<line fill="none" stroke="#030000" stroke-miterlimit="10" x1="0.948" y1="-41.651" x2="4.247" y2="-41.907"/>
<line fill="none" stroke="#030000" stroke-miterlimit="10" x1="4.247" y1="-41.907" x2="4.247" y2="-47.804"/>
<line fill="none" stroke="#030000" stroke-miterlimit="10" x1="4.247" y1="-47.804" x2="11.545" y2="-48.061"/>
<line fill="none" stroke="#030000" stroke-miterlimit="10" x1="11.545" y1="-48.061" x2="15.647" y2="-45.069"/>
<line fill="none" stroke="#030000" stroke-miterlimit="10" x1="15.647" y1="-45.069" x2="15.818" y2="-33.874"/>
<line fill="none" stroke="#030000" stroke-miterlimit="10" x1="15.818" y1="-33.874" x2="10.391" y2="-30.157"/>
<line fill="none" stroke="#030000" stroke-miterlimit="10" x1="10.391" y1="-30.157" x2="11.331" y2="39.044"/>
<line fill="none" stroke="#0300FF" stroke-miterlimit="10" x1="-5.846" y1="-17.915" x2="-5.848" y2="-22.166"/>
<line fill="none" stroke="#0300FF" stroke-miterlimit="10" x1="-5.848" y1="-22.166" x2="-5.088" y2="-23.491"/>
<line fill="none" stroke="#0300FF" stroke-miterlimit="10" x1="-5.088" y1="-23.491" x2="-3.987" y2="-23.491"/>
<line fill="none" stroke="#0300FF" stroke-miterlimit="10" x1="-3.987" y1="-23.491" x2="-3.417" y2="-22.514"/>
<line fill="none" stroke="#0300FF" stroke-miterlimit="10" x1="-3.417" y1="-22.514" x2="-3.083" y2="-17.915"/>
<line fill="none" stroke="#0300FF" stroke-miterlimit="10" x1="-3.083" y1="-17.915" x2="-5.846" y2="-17.915"/>
<line fill="none" stroke="#0300FF" stroke-miterlimit="10" x1="2.527" y1="2.274" x2="2.527" y2="-2.459"/>
<line fill="none" stroke="#0300FF" stroke-miterlimit="10" x1="2.527" y1="-2.459" x2="3.208" y2="-3.75"/>
<line fill="none" stroke="#0300FF" stroke-miterlimit="10" x1="3.208" y1="-3.75" x2="4.601" y2="-3.75"/>
<line fill="none" stroke="#0300FF" stroke-miterlimit="10" x1="4.601" y1="-3.75" x2="5.104" y2="-3.205"/>
<line fill="none" stroke="#0300FF" stroke-miterlimit="10" x1="5.104" y1="-3.205" x2="5.375" y2="1.916"/>
<line fill="none" stroke="#0300FF" stroke-miterlimit="10" x1="5.375" y1="1.916" x2="2.527" y2="2.274"/>
<line fill="none" stroke="#03FF00" stroke-miterlimit="10" x1="-17.469" y1="-25.156" x2="-18.409" y2="-32.678"/>
<line fill="none" stroke="#03FF00" stroke-miterlimit="10" x1="-18.409" y1="-32.678" x2="-14.138" y2="-33.575"/>
<line fill="none" stroke="#03FF00" stroke-miterlimit="10" x1="-14.138" y1="-33.575" x2="-13.667" y2="-28.489"/>
<line fill="none" stroke="#03FF00" stroke-miterlimit="10" x1="-13.667" y1="-28.489" x2="-10.419" y2="-28.576"/>
<line fill="none" stroke="#03FF00" stroke-miterlimit="10" x1="-10.419" y1="-28.576" x2="-10.419" y2="-34.942"/>
<line fill="none" stroke="#03FF00" stroke-miterlimit="10" x1="-10.419" y1="-34.942" x2="-6.146" y2="-34.942"/>
<line fill="none" stroke="#03FF00" stroke-miterlimit="10" x1="-6.146" y1="-34.942" x2="-5.546" y2="-28.917"/>
<line fill="none" stroke="#03FF00" stroke-miterlimit="10" x1="-5.546" y1="-28.917" x2="-3.711" y2="-28.917"/>
<line fill="none" stroke="#03FF00" stroke-miterlimit="10" x1="-3.711" y1="-28.917" x2="-3.711" y2="-35.583"/>
<line fill="none" stroke="#03FF00" stroke-miterlimit="10" x1="-3.711" y1="-35.583" x2="-0.207" y2="-35.583"/>
<line fill="none" stroke="#03FF00" stroke-miterlimit="10" x1="-0.207" y1="-35.583" x2="0.351" y2="-29.772"/>
<line fill="none" stroke="#03FF00" stroke-miterlimit="10" x1="0.351" y1="-29.772" x2="2.336" y2="-29.772"/>
<line fill="none" stroke="#03FF00" stroke-miterlimit="10" x1="2.336" y1="-29.772" x2="2.144" y2="-36.011"/>
<line fill="none" stroke="#03FF00" stroke-miterlimit="10" x1="2.144" y1="-36.011" x2="6.673" y2="-36.011"/>
<line fill="none" stroke="#03FF00" stroke-miterlimit="10" x1="6.673" y1="-36.011" x2="7.896" y2="-31.011"/>
<line fill="none" stroke="#03FF00" stroke-miterlimit="10" x1="7.896" y1="-31.011" x2="10.391" y2="-31.011"/>
</svg>
