<?xml version="1.0" encoding="utf-8"?>
<!-- Generator: Adobe Illustrator 15.1.0, SVG Export Plug-In . SVG Version: 6.00 Build 0)  -->
<!DOCTYPE svg PUBLIC "-//W3C//DTD SVG 1.1//EN" "http://www.w3.org/Graphics/SVG/1.1/DTD/svg11.dtd">
<svg version="1.1" id="Layer_1" xmlns="http://www.w3.org/2000/svg" xmlns:xlink="http://www.w3.org/1999/xlink" x="0px" y="0px"
	 width="100px" height="100px" viewBox="0 0 100 100" enable-background="new 0 0 100 100" xml:space="preserve">
<g display="none">
	<line display="inline" fill="none" stroke="#EC2227" stroke-miterlimit="10" x1="-18.409" y1="-10.416" x2="-17.19" y2="-10.416"/>
	<line display="inline" fill="none" stroke="#EC2227" stroke-miterlimit="10" x1="-17.19" y1="-10.416" x2="-16.166" y2="14.068"/>
	<line display="inline" fill="none" stroke="#EC2227" stroke-miterlimit="10" x1="-16.166" y1="14.068" x2="-16.166" y2="26.696"/>
	<line display="inline" fill="none" stroke="#EC2227" stroke-miterlimit="10" x1="-16.166" y1="26.696" x2="-16.679" y2="37.463"/>
	<line display="inline" fill="none" stroke="#EC2227" stroke-miterlimit="10" x1="-16.679" y1="37.463" x2="-16.166" y2="42.206"/>
	<line display="inline" fill="none" stroke="#EC2227" stroke-miterlimit="10" x1="-17.19" y1="-10.416" x2="-17.469" y2="-17.915"/>
	
		<line display="inline" fill="none" stroke="#EC2227" stroke-miterlimit="10" x1="-17.469" y1="-17.915" x2="-17.469" y2="-25.156"/>
	
		<line display="inline" fill="none" stroke="#EC2227" stroke-miterlimit="10" x1="-17.469" y1="-25.156" x2="-16.188" y2="-25.156"/>
	
		<line display="inline" fill="none" stroke="#EC2227" stroke-miterlimit="10" x1="-16.188" y1="-25.156" x2="-16.572" y2="-31.011"/>
	<line display="inline" fill="none" stroke="#EC2227" stroke-miterlimit="10" x1="-16.572" y1="-31.011" x2="-17.19" y2="-32.785"/>
	<line display="inline" fill="none" stroke="#EC2227" stroke-miterlimit="10" x1="-17.19" y1="-32.976" x2="-14.138" y2="-33.575"/>
	
		<line display="inline" fill="none" stroke="#EC2227" stroke-miterlimit="10" x1="-17.469" y1="-25.156" x2="-17.469" y2="-26.354"/>
	
		<line display="inline" fill="none" stroke="#EC2227" stroke-miterlimit="10" x1="-17.469" y1="-26.354" x2="-18.196" y2="-26.824"/>
	
		<line display="inline" fill="none" stroke="#EC2227" stroke-miterlimit="10" x1="-18.196" y1="-26.824" x2="-18.196" y2="-27.721"/>
	
		<line display="inline" fill="none" stroke="#EC2227" stroke-miterlimit="10" x1="-18.196" y1="-27.721" x2="-19.477" y2="-28.489"/>
	
		<line display="inline" fill="none" stroke="#EC2227" stroke-miterlimit="10" x1="-19.477" y1="-28.489" x2="-19.477" y2="-30.157"/>
	
		<line display="inline" fill="none" stroke="#EC2227" stroke-miterlimit="10" x1="-19.477" y1="-30.157" x2="-20.086" y2="-31.011"/>
	
		<line display="inline" fill="none" stroke="#EC2227" stroke-miterlimit="10" x1="-20.086" y1="-31.011" x2="-20.418" y2="-42.377"/>
	
		<line display="inline" fill="none" stroke="#EC2227" stroke-miterlimit="10" x1="-20.418" y1="-42.377" x2="-21.016" y2="-43.189"/>
	
		<line display="inline" fill="none" stroke="#EC2227" stroke-miterlimit="10" x1="-21.016" y1="-43.189" x2="-20.252" y2="-44.129"/>
	<line display="inline" fill="none" stroke="#EC2227" stroke-miterlimit="10" x1="-20.252" y1="-44.129" x2="-17.19" y2="-44.557"/>
	<line display="inline" fill="none" stroke="#EC2227" stroke-miterlimit="10" x1="-17.19" y1="-44.557" x2="-16.827" y2="-39.814"/>
	
		<line display="inline" fill="none" stroke="#EC2227" stroke-miterlimit="10" x1="-16.827" y1="-39.814" x2="-15.665" y2="-39.258"/>
	
		<line display="inline" fill="none" stroke="#EC2227" stroke-miterlimit="10" x1="-15.665" y1="-39.258" x2="-14.691" y2="-39.258"/>
	<line display="inline" fill="none" stroke="#EC2227" stroke-miterlimit="10" x1="-14.691" y1="-39.258" x2="-14.35" y2="-33.575"/>
	<line display="inline" fill="none" stroke="#EC2227" stroke-miterlimit="10" x1="-14.35" y1="-33.575" x2="-13.923" y2="-32.272"/>
	<line display="inline" fill="none" stroke="#EC2227" stroke-miterlimit="10" x1="-13.923" y1="-32.272" x2="-13.41" y2="-31.011"/>
	<line display="inline" fill="none" stroke="#EC2227" stroke-miterlimit="10" x1="-13.41" y1="-31.011" x2="-12.771" y2="-30.413"/>
	
		<line display="inline" fill="none" stroke="#EC2227" stroke-miterlimit="10" x1="-12.771" y1="-30.413" x2="-12.042" y2="-28.106"/>
	
		<line display="inline" fill="none" stroke="#EC2227" stroke-miterlimit="10" x1="-12.042" y1="-28.106" x2="-11.146" y2="-16.227"/>
	<line display="inline" fill="none" stroke="#EC2227" stroke-miterlimit="10" x1="-11.146" y1="-16.227" x2="-10.848" y2="-0.16"/>
	<line display="inline" fill="none" stroke="#EC2227" stroke-miterlimit="10" x1="-10.848" y1="-0.16" x2="-10.461" y2="14.068"/>
	<line display="inline" fill="none" stroke="#EC2227" stroke-miterlimit="10" x1="-10.461" y1="14.068" x2="-10.035" y2="37.997"/>
	<line display="inline" fill="none" stroke="#EC2227" stroke-miterlimit="10" x1="-10.035" y1="37.997" x2="-10.248" y2="42.206"/>
	<line display="inline" fill="none" stroke="#EC2227" stroke-miterlimit="10" x1="-3.412" y1="33.297" x2="-3.412" y2="27.698"/>
	<line display="inline" fill="none" stroke="#EC2227" stroke-miterlimit="10" x1="-3.412" y1="27.698" x2="-3.754" y2="26.033"/>
	<line display="inline" fill="none" stroke="#EC2227" stroke-miterlimit="10" x1="-3.754" y1="26.033" x2="-3.754" y2="24.708"/>
	<line display="inline" fill="none" stroke="#EC2227" stroke-miterlimit="10" x1="-3.754" y1="24.708" x2="-3.412" y2="23.854"/>
	<line display="inline" fill="none" stroke="#EC2227" stroke-miterlimit="10" x1="-3.412" y1="23.854" x2="-3.754" y2="22.443"/>
	<line display="inline" fill="none" stroke="#EC2227" stroke-miterlimit="10" x1="-3.754" y1="22.443" x2="-3.583" y2="21.759"/>
	<line display="inline" fill="none" stroke="#EC2227" stroke-miterlimit="10" x1="-3.583" y1="21.759" x2="-3.754" y2="20.69"/>
	<line display="inline" fill="none" stroke="#EC2227" stroke-miterlimit="10" x1="-3.754" y1="20.69" x2="-2.898" y2="18.555"/>
	<line display="inline" fill="none" stroke="#EC2227" stroke-miterlimit="10" x1="-2.898" y1="18.555" x2="-3.327" y2="16.976"/>
	<line display="inline" fill="none" stroke="#EC2227" stroke-miterlimit="10" x1="-3.327" y1="16.976" x2="-3.111" y2="15.906"/>
	<line display="inline" fill="none" stroke="#EC2227" stroke-miterlimit="10" x1="-3.111" y1="15.906" x2="-2.515" y2="15.094"/>
	<line display="inline" fill="none" stroke="#EC2227" stroke-miterlimit="10" x1="-2.515" y1="15.094" x2="-3.412" y2="13.041"/>
	<line display="inline" fill="none" stroke="#EC2227" stroke-miterlimit="10" x1="-3.412" y1="13.041" x2="-3.218" y2="12.061"/>
	<line display="inline" fill="none" stroke="#EC2227" stroke-miterlimit="10" x1="-3.218" y1="12.061" x2="-3.583" y2="10.563"/>
	<line display="inline" fill="none" stroke="#EC2227" stroke-miterlimit="10" x1="-3.583" y1="10.563" x2="-2.813" y2="9.796"/>
	<line display="inline" fill="none" stroke="#EC2227" stroke-miterlimit="10" x1="-2.813" y1="9.796" x2="0.436" y2="9.796"/>
	<line display="inline" fill="none" stroke="#EC2227" stroke-miterlimit="10" x1="0.436" y1="9.796" x2="1.76" y2="8.833"/>
	<line display="inline" fill="none" stroke="#EC2227" stroke-miterlimit="10" x1="1.76" y1="8.833" x2="4.238" y2="10.181"/>
	<line display="inline" fill="none" stroke="#EC2227" stroke-miterlimit="10" x1="4.238" y1="10.181" x2="7.698" y2="10.563"/>
	<line display="inline" fill="none" stroke="#EC2227" stroke-miterlimit="10" x1="7.698" y1="10.563" x2="8.468" y2="12.254"/>
	<line display="inline" fill="none" stroke="#EC2227" stroke-miterlimit="10" x1="8.468" y1="12.254" x2="9.15" y2="41.073"/>
	<line display="inline" fill="none" stroke="#EC2227" stroke-miterlimit="10" x1="9.15" y1="41.073" x2="8.81" y2="44.407"/>
	<line display="inline" fill="none" stroke="#EC2227" stroke-miterlimit="10" x1="8.81" y1="44.407" x2="9.878" y2="45.261"/>
	<line display="inline" fill="none" stroke="#EC2227" stroke-miterlimit="10" x1="-0.422" y1="44.407" x2="4.621" y2="44.407"/>
	<line display="inline" fill="none" stroke="#EC2227" stroke-miterlimit="10" x1="4.621" y1="44.407" x2="4.409" y2="33.68"/>
	<line display="inline" fill="none" stroke="#EC2227" stroke-miterlimit="10" x1="4.409" y1="33.68" x2="3.383" y2="30.498"/>
	<line display="inline" fill="none" stroke="#EC2227" stroke-miterlimit="10" x1="3.383" y1="30.498" x2="2.102" y2="27.955"/>
	<line display="inline" fill="none" stroke="#EC2227" stroke-miterlimit="10" x1="2.102" y1="27.955" x2="1.119" y2="27.698"/>
	<line display="inline" fill="none" stroke="#EC2227" stroke-miterlimit="10" x1="1.119" y1="27.698" x2="-0.207" y2="28.639"/>
	<line display="inline" fill="none" stroke="#EC2227" stroke-miterlimit="10" x1="-0.207" y1="28.639" x2="-1.104" y2="31.502"/>
	<line display="inline" fill="none" stroke="#EC2227" stroke-miterlimit="10" x1="-1.104" y1="31.502" x2="-1.104" y2="33.68"/>
	<line display="inline" fill="none" stroke="#EC2227" stroke-miterlimit="10" x1="-1.104" y1="33.68" x2="-0.422" y2="44.407"/>
	<line display="inline" fill="none" stroke="#EC2227" stroke-miterlimit="10" x1="8.204" y1="11.675" x2="10.391" y2="10.563"/>
	<line display="inline" fill="none" stroke="#EC2227" stroke-miterlimit="10" x1="10.391" y1="10.563" x2="12.271" y2="10.373"/>
	<line display="inline" fill="none" stroke="#EC2227" stroke-miterlimit="10" x1="12.271" y1="10.373" x2="13.339" y2="11.675"/>
	<line display="inline" fill="none" stroke="#EC2227" stroke-miterlimit="10" x1="13.339" y1="11.675" x2="13.979" y2="15.906"/>
	<line display="inline" fill="none" stroke="#EC2227" stroke-miterlimit="10" x1="13.979" y1="15.906" x2="13.659" y2="16.976"/>
	<line display="inline" fill="none" stroke="#EC2227" stroke-miterlimit="10" x1="13.659" y1="16.976" x2="13.979" y2="18.555"/>
	<line display="inline" fill="none" stroke="#EC2227" stroke-miterlimit="10" x1="13.979" y1="18.555" x2="15.559" y2="18.897"/>
	<line display="inline" fill="none" stroke="#EC2227" stroke-miterlimit="10" x1="15.559" y1="18.897" x2="15.859" y2="39.833"/>
	<line display="inline" fill="none" stroke="#EC2227" stroke-miterlimit="10" x1="1.76" y1="8.642" x2="2.527" y2="8.257"/>
	<line display="inline" fill="none" stroke="#EC2227" stroke-miterlimit="10" x1="2.527" y1="8.257" x2="4.238" y2="8.257"/>
	<line display="inline" fill="none" stroke="#EC2227" stroke-miterlimit="10" x1="4.238" y1="8.257" x2="5.969" y2="7.615"/>
	<line display="inline" fill="none" stroke="#EC2227" stroke-miterlimit="10" x1="5.969" y1="7.615" x2="8.81" y2="8.833"/>
	<line display="inline" fill="none" stroke="#EC2227" stroke-miterlimit="10" x1="8.81" y1="8.833" x2="9.58" y2="8.833"/>
	<line display="inline" fill="none" stroke="#EC2227" stroke-miterlimit="10" x1="9.58" y1="8.833" x2="12.271" y2="10.373"/>
	<line display="inline" fill="none" stroke="#EC2227" stroke-miterlimit="10" x1="10.756" y1="9.507" x2="10.925" y2="5.693"/>
	<line display="inline" fill="none" stroke="#EC2227" stroke-miterlimit="10" x1="10.925" y1="5.693" x2="10.391" y2="-30.157"/>
	<line display="inline" fill="none" stroke="#EC2227" stroke-miterlimit="10" x1="10.391" y1="-30.157" x2="7.698" y2="-30.157"/>
	<line display="inline" fill="none" stroke="#EC2227" stroke-miterlimit="10" x1="7.698" y1="-30.157" x2="6.673" y2="-36.011"/>
	<line display="inline" fill="none" stroke="#EC2227" stroke-miterlimit="10" x1="6.673" y1="-36.011" x2="5.969" y2="-36.694"/>
	<line display="inline" fill="none" stroke="#EC2227" stroke-miterlimit="10" x1="5.969" y1="-36.694" x2="2.527" y2="-36.417"/>
	<line display="inline" fill="none" stroke="#EC2227" stroke-miterlimit="10" x1="2.527" y1="-36.417" x2="2.144" y2="-36.011"/>
	<line display="inline" fill="none" stroke="#EC2227" stroke-miterlimit="10" x1="2.144" y1="-36.011" x2="2.336" y2="-29.772"/>
	<line display="inline" fill="none" stroke="#EC2227" stroke-miterlimit="10" x1="2.336" y1="-29.772" x2="0.351" y2="-29.772"/>
	<line display="inline" fill="none" stroke="#EC2227" stroke-miterlimit="10" x1="0.351" y1="-29.772" x2="-0.207" y2="-35.583"/>
	<line display="inline" fill="none" stroke="#EC2227" stroke-miterlimit="10" x1="-0.207" y1="-35.583" x2="-0.763" y2="-36.417"/>
	<line display="inline" fill="none" stroke="#EC2227" stroke-miterlimit="10" x1="-0.763" y1="-36.417" x2="-2.685" y2="-36.556"/>
	<line display="inline" fill="none" stroke="#EC2227" stroke-miterlimit="10" x1="-2.685" y1="-36.556" x2="-3.711" y2="-35.583"/>
	<line display="inline" fill="none" stroke="#EC2227" stroke-miterlimit="10" x1="-3.711" y1="-35.583" x2="-3.711" y2="-28.917"/>
	<line display="inline" fill="none" stroke="#EC2227" stroke-miterlimit="10" x1="-3.711" y1="-28.917" x2="-5.546" y2="-28.917"/>
	<line display="inline" fill="none" stroke="#EC2227" stroke-miterlimit="10" x1="-5.546" y1="-28.917" x2="-6.146" y2="-34.942"/>
	<line display="inline" fill="none" stroke="#EC2227" stroke-miterlimit="10" x1="-6.146" y1="-34.942" x2="-7.47" y2="-35.583"/>
	<line display="inline" fill="none" stroke="#EC2227" stroke-miterlimit="10" x1="-7.47" y1="-35.583" x2="-8.966" y2="-35.583"/>
	<line display="inline" fill="none" stroke="#EC2227" stroke-miterlimit="10" x1="-8.966" y1="-35.583" x2="-10.419" y2="-34.942"/>
	<line display="inline" fill="none" stroke="#EC2227" stroke-miterlimit="10" x1="-10.419" y1="-34.942" x2="-9.691" y2="-28.917"/>
	<line display="inline" fill="none" stroke="#EC2227" stroke-miterlimit="10" x1="-9.691" y1="-28.917" x2="-10.419" y2="-28.576"/>
	
		<line display="inline" fill="none" stroke="#EC2227" stroke-miterlimit="10" x1="-10.419" y1="-28.576" x2="-12.191" y2="-28.576"/>
	
		<line display="inline" fill="none" stroke="#EC2227" stroke-miterlimit="10" x1="-14.691" y1="-39.258" x2="-14.691" y2="-46.009"/>
	
		<line display="inline" fill="none" stroke="#EC2227" stroke-miterlimit="10" x1="-14.691" y1="-46.009" x2="-12.191" y2="-46.522"/>
	<line display="inline" fill="none" stroke="#EC2227" stroke-miterlimit="10" x1="-12.191" y1="-46.522" x2="-8.966" y2="-46.522"/>
	<line display="inline" fill="none" stroke="#EC2227" stroke-miterlimit="10" x1="-8.966" y1="-46.522" x2="-8.219" y2="-46.522"/>
	<line display="inline" fill="none" stroke="#EC2227" stroke-miterlimit="10" x1="-8.591" y1="-46.522" x2="-8.591" y2="-41.053"/>
	<line display="inline" fill="none" stroke="#EC2227" stroke-miterlimit="10" x1="-8.591" y1="-41.053" x2="-5.206" y2="-41.053"/>
	<line display="inline" fill="none" stroke="#EC2227" stroke-miterlimit="10" x1="-5.206" y1="-41.053" x2="-5.546" y2="-47.206"/>
	<line display="inline" fill="none" stroke="#EC2227" stroke-miterlimit="10" x1="-5.546" y1="-47.206" x2="0.351" y2="-47.804"/>
	<line display="inline" fill="none" stroke="#EC2227" stroke-miterlimit="10" x1="0.351" y1="-47.804" x2="0.948" y2="-41.651"/>
	<line display="inline" fill="none" stroke="#EC2227" stroke-miterlimit="10" x1="0.948" y1="-41.651" x2="4.247" y2="-41.907"/>
	<line display="inline" fill="none" stroke="#EC2227" stroke-miterlimit="10" x1="4.247" y1="-41.907" x2="4.247" y2="-47.804"/>
	<line display="inline" fill="none" stroke="#EC2227" stroke-miterlimit="10" x1="4.247" y1="-47.804" x2="10.175" y2="-48.061"/>
	<line display="inline" fill="none" stroke="#EC2227" stroke-miterlimit="10" x1="10.175" y1="-48.061" x2="12.699" y2="-47.505"/>
	<line display="inline" fill="none" stroke="#EC2227" stroke-miterlimit="10" x1="12.699" y1="-47.505" x2="15.647" y2="-45.069"/>
	<line display="inline" fill="none" stroke="#EC2227" stroke-miterlimit="10" x1="15.647" y1="-45.069" x2="15.818" y2="-33.874"/>
	<line display="inline" fill="none" stroke="#EC2227" stroke-miterlimit="10" x1="15.818" y1="-33.874" x2="12.699" y2="-33.084"/>
	<line display="inline" fill="none" stroke="#EC2227" stroke-miterlimit="10" x1="12.699" y1="-33.084" x2="10.391" y2="-29.985"/>
	<line display="inline" fill="none" stroke="#EC2227" stroke-miterlimit="10" x1="-5.546" y1="-17.38" x2="-3.711" y2="-17.38"/>
	<line display="inline" fill="none" stroke="#EC2227" stroke-miterlimit="10" x1="-3.711" y1="-17.38" x2="-3.987" y2="-22.166"/>
	<line display="inline" fill="none" stroke="#EC2227" stroke-miterlimit="10" x1="-3.987" y1="-22.166" x2="-4.63" y2="-23.363"/>
	<line display="inline" fill="none" stroke="#EC2227" stroke-miterlimit="10" x1="-4.63" y1="-23.363" x2="-5.546" y2="-23.491"/>
	<line display="inline" fill="none" stroke="#EC2227" stroke-miterlimit="10" x1="-5.546" y1="-23.491" x2="-5.848" y2="-21.536"/>
	<line display="inline" fill="none" stroke="#EC2227" stroke-miterlimit="10" x1="-5.848" y1="-21.536" x2="-5.848" y2="-17.38"/>
	<line display="inline" fill="none" stroke="#EC2227" stroke-miterlimit="10" x1="2.527" y1="2.274" x2="2.527" y2="-2.66"/>
	<line display="inline" fill="none" stroke="#EC2227" stroke-miterlimit="10" x1="2.527" y1="-2.66" x2="3" y2="-3.75"/>
	<line display="inline" fill="none" stroke="#EC2227" stroke-miterlimit="10" x1="3" y1="-3.75" x2="3.831" y2="-3.75"/>
	<line display="inline" fill="none" stroke="#EC2227" stroke-miterlimit="10" x1="3.831" y1="-3.75" x2="4.601" y2="-2.66"/>
	<line display="inline" fill="none" stroke="#EC2227" stroke-miterlimit="10" x1="4.601" y1="-2.66" x2="4.601" y2="2.274"/>
	<line display="inline" fill="none" stroke="#EC2227" stroke-miterlimit="10" x1="4.601" y1="2.274" x2="2.527" y2="2.274"/>
</g>
<g>
	<line fill="none" stroke="#030000" stroke-miterlimit="10" x1="-16.166" y1="42.206" x2="-16.679" y2="37.463"/>
	<line fill="none" stroke="#030000" stroke-miterlimit="10" x1="-16.679" y1="37.463" x2="-16.166" y2="26.696"/>
	<line fill="none" stroke="#030000" stroke-miterlimit="10" x1="-16.166" y1="26.696" x2="-17.469" y2="-25.156"/>
	<line fill="none" stroke="#030000" stroke-miterlimit="10" x1="-17.469" y1="-25.156" x2="-20.086" y2="-31.011"/>
	<line fill="none" stroke="#030000" stroke-miterlimit="10" x1="-20.086" y1="-31.011" x2="-21.016" y2="-43.189"/>
	<line fill="none" stroke="#030000" stroke-miterlimit="10" x1="-21.016" y1="-43.189" x2="-17.19" y2="-44.557"/>
	<line fill="none" stroke="#030000" stroke-miterlimit="10" x1="-17.19" y1="-44.557" x2="-16.827" y2="-39.814"/>
	<line fill="none" stroke="#030000" stroke-miterlimit="10" x1="-16.827" y1="-39.814" x2="-14.691" y2="-39.258"/>
	<line fill="none" stroke="#030000" stroke-miterlimit="10" x1="-14.691" y1="-39.258" x2="-14.691" y2="-46.009"/>
	<line fill="none" stroke="#030000" stroke-miterlimit="10" x1="-14.691" y1="-46.009" x2="-8.966" y2="-46.522"/>
	<line fill="none" stroke="#030000" stroke-miterlimit="10" x1="-8.966" y1="-46.522" x2="-8.592" y2="-41.779"/>
	<line fill="none" stroke="#030000" stroke-miterlimit="10" x1="-8.592" y1="-41.779" x2="-5.206" y2="-41.053"/>
	<line fill="none" stroke="#030000" stroke-miterlimit="10" x1="-5.206" y1="-41.053" x2="-5.546" y2="-47.206"/>
	<line fill="none" stroke="#030000" stroke-miterlimit="10" x1="-5.546" y1="-47.206" x2="0.351" y2="-47.804"/>
	<line fill="none" stroke="#030000" stroke-miterlimit="10" x1="0.351" y1="-47.804" x2="0.948" y2="-41.651"/>
	<line fill="none" stroke="#030000" stroke-miterlimit="10" x1="0.948" y1="-41.651" x2="4.247" y2="-41.907"/>
	<line fill="none" stroke="#030000" stroke-miterlimit="10" x1="4.247" y1="-41.907" x2="4.247" y2="-47.804"/>
	<line fill="none" stroke="#030000" stroke-miterlimit="10" x1="4.247" y1="-47.804" x2="11.545" y2="-48.061"/>
	<line fill="none" stroke="#030000" stroke-miterlimit="10" x1="11.545" y1="-48.061" x2="15.647" y2="-45.069"/>
	<line fill="none" stroke="#030000" stroke-miterlimit="10" x1="15.647" y1="-45.069" x2="15.818" y2="-33.874"/>
	<line fill="none" stroke="#030000" stroke-miterlimit="10" x1="15.818" y1="-33.874" x2="10.391" y2="-30.157"/>
	<line fill="none" stroke="#030000" stroke-miterlimit="10" x1="10.391" y1="-30.157" x2="11.331" y2="39.044"/>
</g>
<g>
	<line fill="none" stroke="#0300FF" stroke-miterlimit="10" x1="-5.846" y1="-17.915" x2="-5.848" y2="-22.166"/>
	<line fill="none" stroke="#0300FF" stroke-miterlimit="10" x1="-5.848" y1="-22.166" x2="-5.088" y2="-23.491"/>
	<line fill="none" stroke="#0300FF" stroke-miterlimit="10" x1="-5.088" y1="-23.491" x2="-3.987" y2="-23.491"/>
	<line fill="none" stroke="#0300FF" stroke-miterlimit="10" x1="-3.987" y1="-23.491" x2="-3.417" y2="-22.514"/>
	<line fill="none" stroke="#0300FF" stroke-miterlimit="10" x1="-3.417" y1="-22.514" x2="-3.083" y2="-17.915"/>
	<line fill="none" stroke="#0300FF" stroke-miterlimit="10" x1="-3.083" y1="-17.915" x2="-5.846" y2="-17.915"/>
</g>
<g>
	<line fill="none" stroke="#0300FF" stroke-miterlimit="10" x1="2.527" y1="2.274" x2="2.527" y2="-2.459"/>
	<line fill="none" stroke="#0300FF" stroke-miterlimit="10" x1="2.527" y1="-2.459" x2="3.208" y2="-3.75"/>
	<line fill="none" stroke="#0300FF" stroke-miterlimit="10" x1="3.208" y1="-3.75" x2="4.601" y2="-3.75"/>
	<line fill="none" stroke="#0300FF" stroke-miterlimit="10" x1="4.601" y1="-3.75" x2="5.104" y2="-3.205"/>
	<line fill="none" stroke="#0300FF" stroke-miterlimit="10" x1="5.104" y1="-3.205" x2="5.375" y2="1.916"/>
	<line fill="none" stroke="#0300FF" stroke-miterlimit="10" x1="5.375" y1="1.916" x2="2.527" y2="2.274"/>
</g>
<g>
	<line fill="none" stroke="#03FF00" stroke-miterlimit="10" x1="-17.469" y1="-25.156" x2="-18.409" y2="-32.678"/>
	<line fill="none" stroke="#03FF00" stroke-miterlimit="10" x1="-18.409" y1="-32.678" x2="-14.138" y2="-33.575"/>
	<line fill="none" stroke="#03FF00" stroke-miterlimit="10" x1="-14.138" y1="-33.575" x2="-13.667" y2="-28.489"/>
	<line fill="none" stroke="#03FF00" stroke-miterlimit="10" x1="-13.667" y1="-28.489" x2="-10.419" y2="-28.576"/>
	<line fill="none" stroke="#03FF00" stroke-miterlimit="10" x1="-10.419" y1="-28.576" x2="-10.419" y2="-34.942"/>
	<line fill="none" stroke="#03FF00" stroke-miterlimit="10" x1="-10.419" y1="-34.942" x2="-6.146" y2="-34.942"/>
	<line fill="none" stroke="#03FF00" stroke-miterlimit="10" x1="-6.146" y1="-34.942" x2="-5.546" y2="-28.917"/>
	<line fill="none" stroke="#03FF00" stroke-miterlimit="10" x1="-5.546" y1="-28.917" x2="-3.711" y2="-28.917"/>
	<line fill="none" stroke="#03FF00" stroke-miterlimit="10" x1="-3.711" y1="-28.917" x2="-3.711" y2="-35.583"/>
	<line fill="none" stroke="#03FF00" stroke-miterlimit="10" x1="-3.711" y1="-35.583" x2="-0.207" y2="-35.583"/>
	<line fill="none" stroke="#03FF00" stroke-miterlimit="10" x1="-0.207" y1="-35.583" x2="0.351" y2="-29.772"/>
	<line fill="none" stroke="#03FF00" stroke-miterlimit="10" x1="0.351" y1="-29.772" x2="2.336" y2="-29.772"/>
	<line fill="none" stroke="#03FF00" stroke-miterlimit="10" x1="2.336" y1="-29.772" x2="2.144" y2="-36.011"/>
	<line fill="none" stroke="#03FF00" stroke-miterlimit="10" x1="2.144" y1="-36.011" x2="6.673" y2="-36.011"/>
	<line fill="none" stroke="#03FF00" stroke-miterlimit="10" x1="6.673" y1="-36.011" x2="7.896" y2="-31.011"/>
	<line fill="none" stroke="#03FF00" stroke-miterlimit="10" x1="7.896" y1="-31.011" x2="10.391" y2="-31.011"/>
</g>
</svg>
