<?xml version="1.0" encoding="utf-8"?>
<!-- Generator: Adobe Illustrator 15.1.0, SVG Export Plug-In . SVG Version: 6.00 Build 0)  -->
<!DOCTYPE svg PUBLIC "-//W3C//DTD SVG 1.1//EN" "http://www.w3.org/Graphics/SVG/1.1/DTD/svg11.dtd">
<svg version="1.1" id="Layer_1" xmlns="http://www.w3.org/2000/svg" xmlns:xlink="http://www.w3.org/1999/xlink" x="0px" y="0px"
	 width="100px" height="100px" viewBox="0 0 100 100" enable-background="new 0 0 100 100" xml:space="preserve">
<line fill="none" stroke="#ED1C24" stroke-width="0.25" stroke-miterlimit="10" x1="-41.582" y1="16.95" x2="-41.582" y2="16.88"/>
<line fill="none" stroke="#ED1C24" stroke-width="0.25" stroke-miterlimit="10" x1="-41.582" y1="17.32" x2="-41.309" y2="16.88"/>
<line fill="none" stroke="#ED1C24" stroke-width="0.25" stroke-miterlimit="10" x1="-41.309" y1="16.88" x2="-42.243" y2="-8.892"/>
<line fill="none" stroke="#ED1C24" stroke-width="0.25" stroke-miterlimit="10" x1="-42.243" y1="-8.892" x2="-42.57" y2="-9.406"/>
<line fill="none" stroke="#ED1C24" stroke-width="0.25" stroke-miterlimit="10" x1="-42.57" y1="-9.406" x2="-40.841" y2="-9.826"/>
<line fill="none" stroke="#ED1C24" stroke-width="0.25" stroke-miterlimit="10" x1="-40.841" y1="-9.826" x2="-38.738" y2="-10.2"/>
<line fill="none" stroke="#ED1C24" stroke-width="0.25" stroke-miterlimit="10" x1="-38.738" y1="-10.2" x2="-37.057" y2="-10.434"/>
<line fill="none" stroke="#ED1C24" stroke-width="0.25" stroke-miterlimit="10" x1="-37.057" y1="-10.434" x2="-34.954" y2="-10.317"/>
<line fill="none" stroke="#ED1C24" stroke-width="0.25" stroke-miterlimit="10" x1="-34.954" y1="-10.317" x2="-30.936" y2="-10.2"/>
<line fill="none" stroke="#ED1C24" stroke-width="0.25" stroke-miterlimit="10" x1="-30.936" y1="-10.2" x2="-29.16" y2="-10.013"/>
<line fill="none" stroke="#ED1C24" stroke-width="0.25" stroke-miterlimit="10" x1="-29.16" y1="-10.013" x2="-27.572" y2="-9.616"/>
<line fill="none" stroke="#ED1C24" stroke-width="0.25" stroke-miterlimit="10" x1="-27.572" y1="-9.616" x2="-27.758" y2="-12.513"/>
<line fill="none" stroke="#ED1C24" stroke-width="0.25" stroke-miterlimit="10" x1="-27.758" y1="-12.513" x2="-28.856" y2="-12.77"/>
<line fill="none" stroke="#ED1C24" stroke-width="0.25" stroke-miterlimit="10" x1="-28.856" y1="-12.77" x2="-28.856" y2="-10.877"/>
<line fill="none" stroke="#ED1C24" stroke-width="0.25" stroke-miterlimit="10" x1="-28.856" y1="-10.877" x2="-29.768" y2="-11.064"/>
<line fill="none" stroke="#ED1C24" stroke-width="0.25" stroke-miterlimit="10" x1="-29.768" y1="-11.064" x2="-29.768" y2="-12.77"/>
<line fill="none" stroke="#ED1C24" stroke-width="0.25" stroke-miterlimit="10" x1="-29.768" y1="-12.77" x2="-30.936" y2="-13.074"/>
<line fill="none" stroke="#ED1C24" stroke-width="0.25" stroke-miterlimit="10" x1="-30.936" y1="-13.074" x2="-31.777" y2="-13.214"/>
<line fill="none" stroke="#ED1C24" stroke-width="0.25" stroke-miterlimit="10" x1="-31.777" y1="-13.214" x2="-32.594" y2="-13.214"/>
<line fill="none" stroke="#ED1C24" stroke-width="0.25" stroke-miterlimit="10" x1="-32.594" y1="-13.214" x2="-32.594" y2="-11.345"/>
<line fill="none" stroke="#ED1C24" stroke-width="0.25" stroke-miterlimit="10" x1="-32.594" y1="-11.345" x2="-34.207" y2="-11.345"/>
<line fill="none" stroke="#ED1C24" stroke-width="0.25" stroke-miterlimit="10" x1="-34.207" y1="-11.345" x2="-34.207" y2="-13.214"/>
<line fill="none" stroke="#ED1C24" stroke-width="0.25" stroke-miterlimit="10" x1="-34.207" y1="-13.214" x2="-35.585" y2="-13.214"/>
<line fill="none" stroke="#ED1C24" stroke-width="0.25" stroke-miterlimit="10" x1="-35.585" y1="-13.214" x2="-36.823" y2="-13.144"/>
<line fill="none" stroke="#ED1C24" stroke-width="0.25" stroke-miterlimit="10" x1="-36.823" y1="-13.144" x2="-36.823" y2="-11.345"/>
<line fill="none" stroke="#ED1C24" stroke-width="0.25" stroke-miterlimit="10" x1="-36.823" y1="-11.345" x2="-38.365" y2="-11.228"/>
<line fill="none" stroke="#ED1C24" stroke-width="0.25" stroke-miterlimit="10" x1="-38.365" y1="-11.228" x2="-38.505" y2="-12.922"/>
<line fill="none" stroke="#ED1C24" stroke-width="0.25" stroke-miterlimit="10" x1="-38.505" y1="-12.922" x2="-38.738" y2="-13.179"/>
<line fill="none" stroke="#ED1C24" stroke-width="0.25" stroke-miterlimit="10" x1="-38.738" y1="-13.179" x2="-41.706" y2="-12.642"/>
<line fill="none" stroke="#ED1C24" stroke-width="0.25" stroke-miterlimit="10" x1="-41.706" y1="-12.642" x2="-41.496" y2="-10.644"/>
<line fill="none" stroke="#ED1C24" stroke-width="0.25" stroke-miterlimit="10" x1="-41.496" y1="-10.644" x2="-42.009" y2="-10.644"/>
<line fill="none" stroke="#ED1C24" stroke-width="0.25" stroke-miterlimit="10" x1="-42.009" y1="-10.644" x2="-42.243" y2="-12.279"/>
<line fill="none" stroke="#ED1C24" stroke-width="0.25" stroke-miterlimit="10" x1="-42.126" y1="-12.279" x2="-42.757" y2="-12.075"/>
<line fill="none" stroke="#ED1C24" stroke-width="0.25" stroke-miterlimit="10" x1="-42.757" y1="-12.075" x2="-42.57" y2="-9.406"/>
<line fill="none" stroke="#ED1C24" stroke-width="0.25" stroke-miterlimit="10" x1="-32.594" y1="-13.354" x2="-32.781" y2="-15.503"/>
<line fill="none" stroke="#ED1C24" stroke-width="0.25" stroke-miterlimit="10" x1="-32.781" y1="-15.503" x2="-31.613" y2="-15.644"/>
<line fill="none" stroke="#ED1C24" stroke-width="0.25" stroke-miterlimit="10" x1="-31.613" y1="-15.644" x2="-30.352" y2="-15.644"/>
<line fill="none" stroke="#ED1C24" stroke-width="0.25" stroke-miterlimit="10" x1="-30.352" y1="-15.644" x2="-30.352" y2="-14.195"/>
<line fill="none" stroke="#ED1C24" stroke-width="0.25" stroke-miterlimit="10" x1="-30.352" y1="-14.195" x2="-29.417" y2="-14.195"/>
<line fill="none" stroke="#ED1C24" stroke-width="0.25" stroke-miterlimit="10" x1="-29.417" y1="-14.195" x2="-29.534" y2="-15.644"/>
<line fill="none" stroke="#ED1C24" stroke-width="0.25" stroke-miterlimit="10" x1="-29.534" y1="-15.644" x2="-28.716" y2="-15.503"/>
<line fill="none" stroke="#ED1C24" stroke-width="0.25" stroke-miterlimit="10" x1="-28.716" y1="-15.503" x2="-28.599" y2="-13.214"/>
<line fill="none" stroke="#ED1C24" stroke-width="0.25" stroke-miterlimit="10" x1="-28.599" y1="-13.214" x2="-29.16" y2="-13.354"/>
<line fill="none" stroke="#ED1C24" stroke-width="0.25" stroke-miterlimit="10" x1="-29.16" y1="-13.354" x2="-31.356" y2="-13.354"/>
<line fill="none" stroke="#ED1C24" stroke-width="0.25" stroke-miterlimit="10" x1="-31.356" y1="-13.354" x2="-31.613" y2="-13.284"/>
<line fill="none" stroke="#ED1C24" stroke-width="0.25" stroke-miterlimit="10" x1="-28.599" y1="-13.214" x2="-28.856" y2="-12.77"/>
<line fill="none" stroke="#ED1C24" stroke-width="0.25" stroke-miterlimit="10" x1="-27.857" y1="-9.688" x2="-27.665" y2="-3.122"/>
<line fill="none" stroke="#ED1C24" stroke-width="0.25" stroke-miterlimit="10" x1="-34.557" y1="2.836" x2="-34.066" y2="2.812"/>
<line fill="none" stroke="#ED1C24" stroke-width="0.25" stroke-miterlimit="10" x1="-34.066" y1="2.812" x2="-34.066" y2="1.177"/>
<line fill="none" stroke="#ED1C24" stroke-width="0.25" stroke-miterlimit="10" x1="-34.066" y1="1.177" x2="-34.312" y2="0.617"/>
<line fill="none" stroke="#ED1C24" stroke-width="0.25" stroke-miterlimit="10" x1="-34.312" y1="0.617" x2="-34.557" y2="0.617"/>
<line fill="none" stroke="#ED1C24" stroke-width="0.25" stroke-miterlimit="10" x1="-34.557" y1="0.617" x2="-34.557" y2="0.897"/>
<line fill="none" stroke="#ED1C24" stroke-width="0.25" stroke-miterlimit="10" x1="-34.557" y1="0.897" x2="-34.557" y2="1.458"/>
<line fill="none" stroke="#ED1C24" stroke-width="0.25" stroke-miterlimit="10" x1="-34.557" y1="1.458" x2="-34.557" y2="2.836"/>
<line fill="none" stroke="#ED1C24" stroke-width="0.25" stroke-miterlimit="10" x1="-35.211" y1="10.102" x2="-35.211" y2="8.793"/>
<line fill="none" stroke="#ED1C24" stroke-width="0.25" stroke-miterlimit="10" x1="-35.211" y1="8.793" x2="-35.024" y2="8.115"/>
<line fill="none" stroke="#ED1C24" stroke-width="0.25" stroke-miterlimit="10" x1="-35.024" y1="8.115" x2="-34.814" y2="8.115"/>
<line fill="none" stroke="#ED1C24" stroke-width="0.25" stroke-miterlimit="10" x1="-34.814" y1="8.115" x2="-34.557" y2="8.583"/>
<line fill="none" stroke="#ED1C24" stroke-width="0.25" stroke-miterlimit="10" x1="-34.557" y1="8.583" x2="-34.557" y2="9.751"/>
<line fill="none" stroke="#ED1C24" stroke-width="0.25" stroke-miterlimit="10" x1="-34.557" y1="9.751" x2="-34.557" y2="10.102"/>
<line fill="none" stroke="#ED1C24" stroke-width="0.25" stroke-miterlimit="10" x1="-34.557" y1="10.102" x2="-35.211" y2="10.102"/>
<line fill="none" stroke="#ED1C24" stroke-width="0.25" stroke-miterlimit="10" x1="-41.445" y1="17.32" x2="-40.911" y2="17.461"/>
<line fill="none" stroke="#ED1C24" stroke-width="0.25" stroke-miterlimit="10" x1="-40.911" y1="17.461" x2="-39.533" y2="17.461"/>
<line fill="none" stroke="#ED1C24" stroke-width="0.25" stroke-miterlimit="10" x1="-39.533" y1="17.461" x2="-36.076" y2="17.391"/>
<line fill="none" stroke="#ED1C24" stroke-width="0.25" stroke-miterlimit="10" x1="-36.076" y1="17.391" x2="-32.571" y2="17.32"/>
<line fill="none" stroke="#ED1C24" stroke-width="0.25" stroke-miterlimit="10" x1="-32.571" y1="17.32" x2="-28.786" y2="17.101"/>
<line fill="none" stroke="#ED1C24" stroke-width="0.25" stroke-miterlimit="10" x1="-28.786" y1="17.101" x2="-27.852" y2="16.915"/>
<line fill="none" stroke="#ED1C24" stroke-width="0.25" stroke-miterlimit="10" x1="-27.852" y1="16.915" x2="-28.108" y2="1.621"/>
<line fill="none" stroke="#ED1C24" stroke-width="0.25" stroke-miterlimit="10" x1="-28.108" y1="1.621" x2="-28.249" y2="-2.538"/>
<line fill="none" stroke="#ED1C24" stroke-width="0.25" stroke-miterlimit="10" x1="-28.249" y1="-2.538" x2="-27.104" y2="-2.724"/>
<line fill="none" stroke="#ED1C24" stroke-width="0.25" stroke-miterlimit="10" x1="-27.104" y1="-2.724" x2="-26.217" y2="-2.724"/>
<line fill="none" stroke="#ED1C24" stroke-width="0.25" stroke-miterlimit="10" x1="-26.217" y1="-2.724" x2="-25.585" y2="-2.724"/>
<line fill="none" stroke="#ED1C24" stroke-width="0.25" stroke-miterlimit="10" x1="-25.585" y1="-2.724" x2="-25.585" y2="-0.084"/>
<line fill="none" stroke="#ED1C24" stroke-width="0.25" stroke-miterlimit="10" x1="-25.585" y1="-0.084" x2="-25.282" y2="0.056"/>
<line fill="none" stroke="#ED1C24" stroke-width="0.25" stroke-miterlimit="10" x1="-25.282" y1="0.056" x2="-24.628" y2="-0.014"/>
<line fill="none" stroke="#ED1C24" stroke-width="0.25" stroke-miterlimit="10" x1="-24.628" y1="-0.014" x2="-24.628" y2="-2.724"/>
<line fill="none" stroke="#ED1C24" stroke-width="0.25" stroke-miterlimit="10" x1="-24.628" y1="-2.724" x2="-23.46" y2="-2.911"/>
<line fill="none" stroke="#ED1C24" stroke-width="0.25" stroke-miterlimit="10" x1="-23.46" y1="-2.911" x2="-22.548" y2="-2.911"/>
<line fill="none" stroke="#ED1C24" stroke-width="0.25" stroke-miterlimit="10" x1="-22.548" y1="-2.911" x2="-21.591" y2="-2.818"/>
<line fill="none" stroke="#ED1C24" stroke-width="0.25" stroke-miterlimit="10" x1="-21.591" y1="-2.818" x2="-21.451" y2="-0.341"/>
<line fill="none" stroke="#ED1C24" stroke-width="0.25" stroke-miterlimit="10" x1="-21.451" y1="-0.341" x2="-20.657" y2="-0.341"/>
<line fill="none" stroke="#ED1C24" stroke-width="0.25" stroke-miterlimit="10" x1="-20.657" y1="-0.341" x2="-20.54" y2="-2.911"/>
<line fill="none" stroke="#ED1C24" stroke-width="0.25" stroke-miterlimit="10" x1="-20.54" y1="-2.911" x2="-19.956" y2="-2.911"/>
<line fill="none" stroke="#ED1C24" stroke-width="0.25" stroke-miterlimit="10" x1="-19.956" y1="-2.911" x2="-19.511" y2="-2.911"/>
<line fill="none" stroke="#ED1C24" stroke-width="0.25" stroke-miterlimit="10" x1="-19.511" y1="-2.911" x2="-19.138" y2="6.014"/>
<line fill="none" stroke="#ED1C24" stroke-width="0.25" stroke-miterlimit="10" x1="-19.138" y1="6.014" x2="-19.138" y2="10.615"/>
<line fill="none" stroke="#ED1C24" stroke-width="0.25" stroke-miterlimit="10" x1="-19.138" y1="10.615" x2="-19.325" y2="14.54"/>
<line fill="none" stroke="#ED1C24" stroke-width="0.25" stroke-miterlimit="10" x1="-19.325" y1="14.54" x2="-19.138" y2="16.27"/>
<line fill="none" stroke="#ED1C24" stroke-width="0.25" stroke-miterlimit="10" x1="-26.419" y1="-2.818" x2="-26.372" y2="-5.201"/>
<line fill="none" stroke="#ED1C24" stroke-width="0.25" stroke-miterlimit="10" x1="-26.372" y1="-5.201" x2="-25.049" y2="-5.481"/>
<line fill="none" stroke="#ED1C24" stroke-width="0.25" stroke-miterlimit="10" x1="-25.049" y1="-5.481" x2="-23.195" y2="-5.59"/>
<line fill="none" stroke="#ED1C24" stroke-width="0.25" stroke-miterlimit="10" x1="-23.195" y1="-5.59" x2="-21.521" y2="-5.699"/>
<line fill="none" stroke="#ED1C24" stroke-width="0.25" stroke-miterlimit="10" x1="-21.521" y1="-5.699" x2="-19.613" y2="-5.645"/>
<line fill="none" stroke="#ED1C24" stroke-width="0.25" stroke-miterlimit="10" x1="-19.511" y1="-2.911" x2="-19.613" y2="-5.645"/>
<line fill="none" stroke="#ED1C24" stroke-width="0.25" stroke-miterlimit="10" x1="-19.613" y1="-5.645" x2="-19.613" y2="-8.285"/>
<line fill="none" stroke="#ED1C24" stroke-width="0.25" stroke-miterlimit="10" x1="-19.613" y1="-8.285" x2="-21.521" y2="-8.409"/>
<line fill="none" stroke="#ED1C24" stroke-width="0.25" stroke-miterlimit="10" x1="-21.521" y1="-8.409" x2="-21.591" y2="-6.571"/>
<line fill="none" stroke="#ED1C24" stroke-width="0.25" stroke-miterlimit="10" x1="-21.591" y1="-6.571" x2="-22.198" y2="-6.405"/>
<line fill="none" stroke="#ED1C24" stroke-width="0.25" stroke-miterlimit="10" x1="-22.198" y1="-6.405" x2="-22.463" y2="-6.488"/>
<line fill="none" stroke="#ED1C24" stroke-width="0.25" stroke-miterlimit="10" x1="-22.463" y1="-6.488" x2="-22.463" y2="-8.409"/>
<line fill="none" stroke="#ED1C24" stroke-width="0.25" stroke-miterlimit="10" x1="-22.463" y1="-8.409" x2="-23.351" y2="-8.346"/>
<line fill="none" stroke="#ED1C24" stroke-width="0.25" stroke-miterlimit="10" x1="-23.351" y1="-8.346" x2="-24.27" y2="-8.175"/>
<line fill="none" stroke="#ED1C24" stroke-width="0.25" stroke-miterlimit="10" x1="-24.27" y1="-8.175" x2="-24.27" y2="-6.68"/>
<line fill="none" stroke="#ED1C24" stroke-width="0.25" stroke-miterlimit="10" x1="-24.27" y1="-6.68" x2="-24.425" y2="-6.446"/>
<line fill="none" stroke="#ED1C24" stroke-width="0.25" stroke-miterlimit="10" x1="-24.425" y1="-6.446" x2="-24.955" y2="-6.446"/>
<line fill="none" stroke="#ED1C24" stroke-width="0.25" stroke-miterlimit="10" x1="-24.955" y1="-6.446" x2="-25.049" y2="-8.261"/>
<line fill="none" stroke="#ED1C24" stroke-width="0.25" stroke-miterlimit="10" x1="-25.049" y1="-8.261" x2="-26.66" y2="-7.926"/>
<line fill="none" stroke="#ED1C24" stroke-width="0.25" stroke-miterlimit="10" x1="-26.66" y1="-7.926" x2="-26.66" y2="-6.836"/>
<line fill="none" stroke="#ED1C24" stroke-width="0.25" stroke-miterlimit="10" x1="-26.66" y1="-6.836" x2="-26.792" y2="-5.699"/>
<line fill="none" stroke="#ED1C24" stroke-width="0.25" stroke-miterlimit="10" x1="-26.792" y1="-5.699" x2="-26.372" y2="-5.201"/>
<line fill="none" stroke="#ED1C24" stroke-width="0.25" stroke-miterlimit="10" x1="-19.613" y1="-8.285" x2="-19.146" y2="-8.285"/>
<line fill="none" stroke="#ED1C24" stroke-width="0.25" stroke-miterlimit="10" x1="-19.146" y1="-8.285" x2="-19.286" y2="-10.418"/>
<line fill="none" stroke="#ED1C24" stroke-width="0.25" stroke-miterlimit="10" x1="-19.286" y1="-10.418" x2="-19.511" y2="-11.064"/>
<line fill="none" stroke="#ED1C24" stroke-width="0.25" stroke-miterlimit="10" x1="-19.511" y1="-11.135" x2="-18.398" y2="-11.353"/>
<line fill="none" stroke="#ED1C24" stroke-width="0.25" stroke-miterlimit="10" x1="-19.613" y1="-8.285" x2="-19.613" y2="-8.721"/>
<line fill="none" stroke="#ED1C24" stroke-width="0.25" stroke-miterlimit="10" x1="-19.613" y1="-8.721" x2="-19.877" y2="-8.892"/>
<line fill="none" stroke="#ED1C24" stroke-width="0.25" stroke-miterlimit="10" x1="-19.877" y1="-8.892" x2="-19.877" y2="-9.219"/>
<line fill="none" stroke="#ED1C24" stroke-width="0.25" stroke-miterlimit="10" x1="-19.877" y1="-9.219" x2="-20.345" y2="-9.499"/>
<line fill="none" stroke="#ED1C24" stroke-width="0.25" stroke-miterlimit="10" x1="-20.345" y1="-9.499" x2="-20.345" y2="-10.106"/>
<line fill="none" stroke="#ED1C24" stroke-width="0.25" stroke-miterlimit="10" x1="-20.345" y1="-10.106" x2="-20.567" y2="-10.418"/>
<line fill="none" stroke="#ED1C24" stroke-width="0.25" stroke-miterlimit="10" x1="-20.567" y1="-10.418" x2="-20.688" y2="-14.561"/>
<line fill="none" stroke="#ED1C24" stroke-width="0.25" stroke-miterlimit="10" x1="-20.688" y1="-14.561" x2="-20.905" y2="-14.857"/>
<line fill="none" stroke="#ED1C24" stroke-width="0.25" stroke-miterlimit="10" x1="-20.905" y1="-14.857" x2="-20.627" y2="-15.2"/>
<line fill="none" stroke="#ED1C24" stroke-width="0.25" stroke-miterlimit="10" x1="-20.627" y1="-15.2" x2="-19.511" y2="-15.355"/>
<line fill="none" stroke="#ED1C24" stroke-width="0.25" stroke-miterlimit="10" x1="-19.511" y1="-15.355" x2="-19.379" y2="-13.626"/>
<line fill="none" stroke="#ED1C24" stroke-width="0.25" stroke-miterlimit="10" x1="-19.379" y1="-13.626" x2="-18.955" y2="-13.424"/>
<line fill="none" stroke="#ED1C24" stroke-width="0.25" stroke-miterlimit="10" x1="-18.955" y1="-13.424" x2="-18.601" y2="-13.424"/>
<line fill="none" stroke="#ED1C24" stroke-width="0.25" stroke-miterlimit="10" x1="-18.601" y1="-13.424" x2="-18.476" y2="-11.353"/>
<line fill="none" stroke="#ED1C24" stroke-width="0.25" stroke-miterlimit="10" x1="-18.476" y1="-11.353" x2="-18.32" y2="-10.877"/>
<line fill="none" stroke="#ED1C24" stroke-width="0.25" stroke-miterlimit="10" x1="-18.32" y1="-10.877" x2="-18.133" y2="-10.418"/>
<line fill="none" stroke="#ED1C24" stroke-width="0.25" stroke-miterlimit="10" x1="-18.133" y1="-10.418" x2="-17.9" y2="-10.2"/>
<line fill="none" stroke="#ED1C24" stroke-width="0.25" stroke-miterlimit="10" x1="-17.9" y1="-10.2" x2="-17.635" y2="-9.359"/>
<line fill="none" stroke="#ED1C24" stroke-width="0.25" stroke-miterlimit="10" x1="-17.635" y1="-9.359" x2="-17.308" y2="-5.029"/>
<line fill="none" stroke="#ED1C24" stroke-width="0.25" stroke-miterlimit="10" x1="-17.308" y1="-5.029" x2="-17.199" y2="0.827"/>
<line fill="none" stroke="#ED1C24" stroke-width="0.25" stroke-miterlimit="10" x1="-17.199" y1="0.827" x2="-17.059" y2="6.014"/>
<line fill="none" stroke="#ED1C24" stroke-width="0.25" stroke-miterlimit="10" x1="-17.059" y1="6.014" x2="-16.903" y2="14.735"/>
<line fill="none" stroke="#ED1C24" stroke-width="0.25" stroke-miterlimit="10" x1="-16.903" y1="14.735" x2="-16.981" y2="16.27"/>
<line fill="none" stroke="#ED1C24" stroke-width="0.25" stroke-miterlimit="10" x1="-27.852" y1="16.915" x2="-24.955" y2="17.101"/>
<line fill="none" stroke="#ED1C24" stroke-width="0.25" stroke-miterlimit="10" x1="-22.712" y1="6.263" x2="-22.183" y2="6.246"/>
<line fill="none" stroke="#ED1C24" stroke-width="0.25" stroke-miterlimit="10" x1="-22.183" y1="6.246" x2="-22.183" y2="4.455"/>
<line fill="none" stroke="#ED1C24" stroke-width="0.25" stroke-miterlimit="10" x1="-22.183" y1="4.455" x2="-22.307" y2="4.145"/>
<line fill="none" stroke="#ED1C24" stroke-width="0.25" stroke-miterlimit="10" x1="-22.307" y1="4.145" x2="-22.572" y2="4.066"/>
<line fill="none" stroke="#ED1C24" stroke-width="0.25" stroke-miterlimit="10" x1="-22.572" y1="4.066" x2="-22.712" y2="4.301"/>
<line fill="none" stroke="#ED1C24" stroke-width="0.25" stroke-miterlimit="10" x1="-22.712" y1="4.301" x2="-22.712" y2="6.263"/>
<line fill="none" stroke="#ED1C24" stroke-width="0.25" stroke-miterlimit="10" x1="-20.594" y1="10.857" x2="-20.018" y2="10.826"/>
<line fill="none" stroke="#ED1C24" stroke-width="0.25" stroke-miterlimit="10" x1="-20.018" y1="10.826" x2="-20.018" y2="9.268"/>
<line fill="none" stroke="#ED1C24" stroke-width="0.25" stroke-miterlimit="10" x1="-20.018" y1="9.268" x2="-20.127" y2="8.567"/>
<line fill="none" stroke="#ED1C24" stroke-width="0.25" stroke-miterlimit="10" x1="-20.127" y1="8.567" x2="-20.376" y2="8.428"/>
<line fill="none" stroke="#ED1C24" stroke-width="0.25" stroke-miterlimit="10" x1="-20.376" y1="8.428" x2="-20.594" y2="8.661"/>
<line fill="none" stroke="#ED1C24" stroke-width="0.25" stroke-miterlimit="10" x1="-20.594" y1="8.661" x2="-20.594" y2="10.857"/>
<line fill="none" stroke="#ED1C24" stroke-width="0.25" stroke-miterlimit="10" x1="-9.263" y1="16.27" x2="-9.458" y2="-10.106"/>
<line fill="none" stroke="#ED1C24" stroke-width="0.25" stroke-miterlimit="10" x1="-9.458" y1="-10.106" x2="-10.439" y2="-10.106"/>
<line fill="none" stroke="#ED1C24" stroke-width="0.25" stroke-miterlimit="10" x1="-10.439" y1="-10.106" x2="-10.813" y2="-12.24"/>
<line fill="none" stroke="#ED1C24" stroke-width="0.25" stroke-miterlimit="10" x1="-10.813" y1="-12.24" x2="-11.07" y2="-12.49"/>
<line fill="none" stroke="#ED1C24" stroke-width="0.25" stroke-miterlimit="10" x1="-11.07" y1="-12.49" x2="-12.324" y2="-12.388"/>
<line fill="none" stroke="#ED1C24" stroke-width="0.25" stroke-miterlimit="10" x1="-12.324" y1="-12.388" x2="-12.464" y2="-12.24"/>
<line fill="none" stroke="#ED1C24" stroke-width="0.25" stroke-miterlimit="10" x1="-12.464" y1="-12.24" x2="-12.394" y2="-9.966"/>
<line fill="none" stroke="#ED1C24" stroke-width="0.25" stroke-miterlimit="10" x1="-12.394" y1="-9.966" x2="-13.118" y2="-9.966"/>
<line fill="none" stroke="#ED1C24" stroke-width="0.25" stroke-miterlimit="10" x1="-13.118" y1="-9.966" x2="-13.321" y2="-12.084"/>
<line fill="none" stroke="#ED1C24" stroke-width="0.25" stroke-miterlimit="10" x1="-13.321" y1="-12.084" x2="-13.523" y2="-12.388"/>
<line fill="none" stroke="#ED1C24" stroke-width="0.25" stroke-miterlimit="10" x1="-13.523" y1="-12.388" x2="-14.224" y2="-12.439"/>
<line fill="none" stroke="#ED1C24" stroke-width="0.25" stroke-miterlimit="10" x1="-14.224" y1="-12.439" x2="-14.598" y2="-12.084"/>
<line fill="none" stroke="#ED1C24" stroke-width="0.25" stroke-miterlimit="10" x1="-14.598" y1="-12.084" x2="-14.598" y2="-9.655"/>
<line fill="none" stroke="#ED1C24" stroke-width="0.25" stroke-miterlimit="10" x1="-14.598" y1="-9.655" x2="-15.268" y2="-9.655"/>
<line fill="none" stroke="#ED1C24" stroke-width="0.25" stroke-miterlimit="10" x1="-15.268" y1="-9.655" x2="-15.485" y2="-11.851"/>
<line fill="none" stroke="#ED1C24" stroke-width="0.25" stroke-miterlimit="10" x1="-15.485" y1="-11.851" x2="-15.968" y2="-12.084"/>
<line fill="none" stroke="#ED1C24" stroke-width="0.25" stroke-miterlimit="10" x1="-15.968" y1="-12.084" x2="-16.513" y2="-12.084"/>
<line fill="none" stroke="#ED1C24" stroke-width="0.25" stroke-miterlimit="10" x1="-16.513" y1="-12.084" x2="-17.043" y2="-11.851"/>
<line fill="none" stroke="#ED1C24" stroke-width="0.25" stroke-miterlimit="10" x1="-17.043" y1="-11.851" x2="-16.778" y2="-9.655"/>
<line fill="none" stroke="#ED1C24" stroke-width="0.25" stroke-miterlimit="10" x1="-16.778" y1="-9.655" x2="-17.043" y2="-9.531"/>
<line fill="none" stroke="#ED1C24" stroke-width="0.25" stroke-miterlimit="10" x1="-17.043" y1="-9.531" x2="-17.689" y2="-9.531"/>
<line fill="none" stroke="#ED1C24" stroke-width="0.25" stroke-miterlimit="10" x1="-18.601" y1="-13.424" x2="-18.601" y2="-15.885"/>
<line fill="none" stroke="#ED1C24" stroke-width="0.25" stroke-miterlimit="10" x1="-18.601" y1="-15.885" x2="-17.689" y2="-16.072"/>
<line fill="none" stroke="#ED1C24" stroke-width="0.25" stroke-miterlimit="10" x1="-17.689" y1="-16.072" x2="-16.513" y2="-16.072"/>
<line fill="none" stroke="#ED1C24" stroke-width="0.25" stroke-miterlimit="10" x1="-16.513" y1="-16.072" x2="-16.241" y2="-16.072"/>
<line fill="none" stroke="#ED1C24" stroke-width="0.25" stroke-miterlimit="10" x1="-16.377" y1="-16.072" x2="-16.377" y2="-14.078"/>
<line fill="none" stroke="#ED1C24" stroke-width="0.25" stroke-miterlimit="10" x1="-16.377" y1="-14.078" x2="-15.143" y2="-14.078"/>
<line fill="none" stroke="#ED1C24" stroke-width="0.25" stroke-miterlimit="10" x1="-15.143" y1="-14.078" x2="-15.268" y2="-16.321"/>
<line fill="none" stroke="#ED1C24" stroke-width="0.25" stroke-miterlimit="10" x1="-15.268" y1="-16.321" x2="-13.118" y2="-16.539"/>
<line fill="none" stroke="#ED1C24" stroke-width="0.25" stroke-miterlimit="10" x1="-13.118" y1="-16.539" x2="-12.9" y2="-14.296"/>
<line fill="none" stroke="#ED1C24" stroke-width="0.25" stroke-miterlimit="10" x1="-12.9" y1="-14.296" x2="-11.697" y2="-14.39"/>
<line fill="none" stroke="#ED1C24" stroke-width="0.25" stroke-miterlimit="10" x1="-11.697" y1="-14.39" x2="-11.697" y2="-16.539"/>
<line fill="none" stroke="#ED1C24" stroke-width="0.25" stroke-miterlimit="10" x1="-11.697" y1="-16.539" x2="-9.536" y2="-16.632"/>
<line fill="none" stroke="#ED1C24" stroke-width="0.25" stroke-miterlimit="10" x1="-9.536" y1="-16.632" x2="-8.617" y2="-16.43"/>
<line fill="none" stroke="#ED1C24" stroke-width="0.25" stroke-miterlimit="10" x1="-8.617" y1="-16.43" x2="-7.542" y2="-15.542"/>
<line fill="none" stroke="#ED1C24" stroke-width="0.25" stroke-miterlimit="10" x1="-7.542" y1="-15.542" x2="-7.48" y2="-11.461"/>
<line fill="none" stroke="#ED1C24" stroke-width="0.25" stroke-miterlimit="10" x1="-7.48" y1="-11.461" x2="-8.617" y2="-11.173"/>
<line fill="none" stroke="#ED1C24" stroke-width="0.25" stroke-miterlimit="10" x1="-8.617" y1="-11.173" x2="-9.458" y2="-10.044"/>
<line fill="none" stroke="#ED1C24" stroke-width="0.25" stroke-miterlimit="10" x1="-15.268" y1="-5.45" x2="-14.598" y2="-5.45"/>
<line fill="none" stroke="#ED1C24" stroke-width="0.25" stroke-miterlimit="10" x1="-14.598" y1="-5.45" x2="-14.699" y2="-7.194"/>
<line fill="none" stroke="#ED1C24" stroke-width="0.25" stroke-miterlimit="10" x1="-14.699" y1="-7.194" x2="-14.933" y2="-7.63"/>
<line fill="none" stroke="#ED1C24" stroke-width="0.25" stroke-miterlimit="10" x1="-14.933" y1="-7.63" x2="-15.268" y2="-7.677"/>
<line fill="none" stroke="#ED1C24" stroke-width="0.25" stroke-miterlimit="10" x1="-15.268" y1="-7.677" x2="-15.376" y2="-6.964"/>
<line fill="none" stroke="#ED1C24" stroke-width="0.25" stroke-miterlimit="10" x1="-15.376" y1="-6.964" x2="-15.376" y2="-5.45"/>
<line fill="none" stroke="#ED1C24" stroke-width="0.25" stroke-miterlimit="10" x1="-12.324" y1="1.715" x2="-12.324" y2="-0.084"/>
<line fill="none" stroke="#ED1C24" stroke-width="0.25" stroke-miterlimit="10" x1="-12.324" y1="-0.084" x2="-12.152" y2="-0.481"/>
<line fill="none" stroke="#ED1C24" stroke-width="0.25" stroke-miterlimit="10" x1="-12.152" y1="-0.481" x2="-11.849" y2="-0.481"/>
<line fill="none" stroke="#ED1C24" stroke-width="0.25" stroke-miterlimit="10" x1="-11.849" y1="-0.481" x2="-11.568" y2="-0.084"/>
<line fill="none" stroke="#ED1C24" stroke-width="0.25" stroke-miterlimit="10" x1="-11.568" y1="-0.084" x2="-11.568" y2="1.715"/>
<line fill="none" stroke="#ED1C24" stroke-width="0.25" stroke-miterlimit="10" x1="-11.568" y1="1.715" x2="-12.324" y2="1.715"/>
<line fill="none" stroke="#ED1C24" stroke-width="0.25" stroke-miterlimit="10" x1="-5.985" y1="15.117" x2="-2.224" y2="14.914"/>
<line fill="none" stroke="#ED1C24" stroke-width="0.25" stroke-miterlimit="10" x1="-2.224" y1="14.914" x2="-1.266" y2="15.016"/>
<line fill="none" stroke="#ED1C24" stroke-width="0.25" stroke-miterlimit="10" x1="-1.266" y1="15.016" x2="-0.004" y2="15.117"/>
<line fill="none" stroke="#ED1C24" stroke-width="0.25" stroke-miterlimit="10" x1="-5.985" y1="15.386" x2="-6.343" y2="3.42"/>
<line fill="none" stroke="#ED1C24" stroke-width="0.25" stroke-miterlimit="10" x1="-6.343" y1="3.42" x2="-6.639" y2="-8.285"/>
<line fill="none" stroke="#ED1C24" stroke-width="0.25" stroke-miterlimit="10" x1="-6.639" y1="-8.285" x2="-6.639" y2="-10.106"/>
<line fill="none" stroke="#ED1C24" stroke-width="0.25" stroke-miterlimit="10" x1="-6.639" y1="-10.106" x2="-6.343" y2="-10.753"/>
<line fill="none" stroke="#ED1C24" stroke-width="0.25" stroke-miterlimit="10" x1="-6.343" y1="-10.753" x2="-4.934" y2="-11.461"/>
<line fill="none" stroke="#ED1C24" stroke-width="0.25" stroke-miterlimit="10" x1="-4.934" y1="-11.461" x2="-3.999" y2="-11.695"/>
<line fill="none" stroke="#ED1C24" stroke-width="0.25" stroke-miterlimit="10" x1="-3.999" y1="-11.695" x2="-2.663" y2="-11.461"/>
<line fill="none" stroke="#ED1C24" stroke-width="0.25" stroke-miterlimit="10" x1="-2.663" y1="-11.461" x2="-1.663" y2="-11.025"/>
<line fill="none" stroke="#ED1C24" stroke-width="0.25" stroke-miterlimit="10" x1="-1.663" y1="-11.025" x2="-0.892" y2="-10.418"/>
<line fill="none" stroke="#ED1C24" stroke-width="0.25" stroke-miterlimit="10" x1="-0.892" y1="-10.418" x2="-0.611" y2="-9.966"/>
<line fill="none" stroke="#ED1C24" stroke-width="0.25" stroke-miterlimit="10" x1="-0.004" y1="15.856" x2="-0.004" y2="13.676"/>
<line fill="none" stroke="#ED1C24" stroke-width="0.25" stroke-miterlimit="10" x1="-0.004" y1="13.676" x2="-0.145" y2="4.938"/>
<line fill="none" stroke="#ED1C24" stroke-width="0.25" stroke-miterlimit="10" x1="-0.145" y1="4.938" x2="-0.425" y2="-3.573"/>
<line fill="none" stroke="#ED1C24" stroke-width="0.25" stroke-miterlimit="10" x1="-0.425" y1="-3.573" x2="-0.611" y2="-9.966"/>
<line fill="none" stroke="#ED1C24" stroke-width="0.25" stroke-miterlimit="10" x1="-3.766" y1="-5.699" x2="-3.332" y2="-5.832"/>
<line fill="none" stroke="#ED1C24" stroke-width="0.25" stroke-miterlimit="10" x1="-3.332" y1="-5.832" x2="-3.332" y2="-7.934"/>
<line fill="none" stroke="#ED1C24" stroke-width="0.25" stroke-miterlimit="10" x1="-3.332" y1="-7.934" x2="-3.548" y2="-8.167"/>
<line fill="none" stroke="#ED1C24" stroke-width="0.25" stroke-miterlimit="10" x1="-3.548" y1="-8.167" x2="-3.766" y2="-8.074"/>
<line fill="none" stroke="#ED1C24" stroke-width="0.25" stroke-miterlimit="10" x1="-3.766" y1="-8.074" x2="-3.766" y2="-7.653"/>
<line fill="none" stroke="#ED1C24" stroke-width="0.25" stroke-miterlimit="10" x1="-3.766" y1="-7.653" x2="-3.766" y2="-5.699"/>
<line fill="none" stroke="#ED1C24" stroke-width="0.25" stroke-miterlimit="10" x1="-3.548" y1="0.406" x2="-2.995" y2="0.406"/>
<line fill="none" stroke="#ED1C24" stroke-width="0.25" stroke-miterlimit="10" x1="-2.995" y1="0.406" x2="-2.995" y2="-1.299"/>
<line fill="none" stroke="#ED1C24" stroke-width="0.25" stroke-miterlimit="10" x1="-2.995" y1="-1.299" x2="-3.135" y2="-1.743"/>
<line fill="none" stroke="#ED1C24" stroke-width="0.25" stroke-miterlimit="10" x1="-3.135" y1="-1.743" x2="-3.44" y2="-1.883"/>
<line fill="none" stroke="#ED1C24" stroke-width="0.25" stroke-miterlimit="10" x1="-3.44" y1="-1.883" x2="-3.548" y2="-1.521"/>
<line fill="none" stroke="#ED1C24" stroke-width="0.25" stroke-miterlimit="10" x1="-3.548" y1="-1.521" x2="-3.548" y2="0.406"/>
<line fill="none" stroke="#ED1C24" stroke-width="0.25" stroke-miterlimit="10" x1="-5.611" y1="5.009" x2="-0.145" y2="4.938"/>
<line fill="none" stroke="#ED1C24" stroke-width="0.25" stroke-miterlimit="10" x1="-5.144" y1="15.066" x2="-5.284" y2="9.268"/>
<line fill="none" stroke="#ED1C24" stroke-width="0.25" stroke-miterlimit="10" x1="-5.284" y1="9.268" x2="-5.284" y2="8.816"/>
<line fill="none" stroke="#ED1C24" stroke-width="0.25" stroke-miterlimit="10" x1="-5.284" y1="8.816" x2="-4.256" y2="7.648"/>
<line fill="none" stroke="#ED1C24" stroke-width="0.25" stroke-miterlimit="10" x1="-4.256" y1="7.648" x2="-3.415" y2="7.072"/>
<line fill="none" stroke="#ED1C24" stroke-width="0.25" stroke-miterlimit="10" x1="-3.415" y1="7.072" x2="-2.663" y2="7.072"/>
<line fill="none" stroke="#ED1C24" stroke-width="0.25" stroke-miterlimit="10" x1="-2.663" y1="7.072" x2="-1.5" y2="7.485"/>
<line fill="none" stroke="#ED1C24" stroke-width="0.25" stroke-miterlimit="10" x1="-1.5" y1="7.485" x2="-0.635" y2="8.232"/>
<line fill="none" stroke="#ED1C24" stroke-width="0.25" stroke-miterlimit="10" x1="-0.635" y1="8.232" x2="-0.284" y2="9.322"/>
<line fill="none" stroke="#ED1C24" stroke-width="0.25" stroke-miterlimit="10" x1="0.112" y1="15.856" x2="0.487" y2="16.689"/>
<line fill="none" stroke="#ED1C24" stroke-width="0.25" stroke-miterlimit="10" x1="-9.038" y1="-16.539" x2="-9.038" y2="-17.536"/>
<line fill="none" stroke="#ED1C24" stroke-width="0.25" stroke-miterlimit="10" x1="-9.038" y1="-17.536" x2="-9.077" y2="-18.221"/>
<line fill="none" stroke="#ED1C24" stroke-width="0.25" stroke-miterlimit="10" x1="-9.077" y1="-18.221" x2="-7.729" y2="-18.533"/>
<line fill="none" stroke="#ED1C24" stroke-width="0.25" stroke-miterlimit="10" x1="-7.729" y1="-18.533" x2="-7.729" y2="-17.536"/>
<line fill="none" stroke="#ED1C24" stroke-width="0.25" stroke-miterlimit="10" x1="-7.729" y1="-17.536" x2="-6.794" y2="-17.536"/>
<line fill="none" stroke="#ED1C24" stroke-width="0.25" stroke-miterlimit="10" x1="-6.794" y1="-17.536" x2="-6.794" y2="-18.533"/>
<line fill="none" stroke="#ED1C24" stroke-width="0.25" stroke-miterlimit="10" x1="-6.794" y1="-18.533" x2="-5.144" y2="-18.533"/>
<line fill="none" stroke="#ED1C24" stroke-width="0.25" stroke-miterlimit="10" x1="-5.144" y1="-18.533" x2="-3.766" y2="-18.221"/>
<line fill="none" stroke="#ED1C24" stroke-width="0.25" stroke-miterlimit="10" x1="-3.766" y1="-18.221" x2="-3.766" y2="-16.585"/>
<line fill="none" stroke="#ED1C24" stroke-width="0.25" stroke-miterlimit="10" x1="-8.08" y1="-16.321" x2="-5.969" y2="-16.321"/>
<line fill="none" stroke="#ED1C24" stroke-width="0.25" stroke-miterlimit="10" x1="-5.969" y1="-16.321" x2="-5.969" y2="-14.655"/>
<line fill="none" stroke="#ED1C24" stroke-width="0.25" stroke-miterlimit="10" x1="-5.969" y1="-14.655" x2="-4.934" y2="-14.655"/>
<line fill="none" stroke="#ED1C24" stroke-width="0.25" stroke-miterlimit="10" x1="-4.934" y1="-14.655" x2="-4.934" y2="-16.321"/>
<line fill="none" stroke="#ED1C24" stroke-width="0.25" stroke-miterlimit="10" x1="-4.934" y1="-16.321" x2="-3.271" y2="-16.321"/>
<line fill="none" stroke="#ED1C24" stroke-width="0.25" stroke-miterlimit="10" x1="-3.271" y1="-16.321" x2="-3.135" y2="-15.028"/>
<line fill="none" stroke="#ED1C24" stroke-width="0.25" stroke-miterlimit="10" x1="-3.135" y1="-15.028" x2="-2.163" y2="-14.919"/>
<line fill="none" stroke="#ED1C24" stroke-width="0.25" stroke-miterlimit="10" x1="-2.163" y1="-14.919" x2="-2.163" y2="-16.321"/>
<line fill="none" stroke="#ED1C24" stroke-width="0.25" stroke-miterlimit="10" x1="-2.163" y1="-16.321" x2="-1.904" y2="-16.321"/>
<line fill="none" stroke="#ED1C24" stroke-width="0.25" stroke-miterlimit="10" x1="-1.904" y1="-16.913" x2="-1.663" y2="-11.968"/>
<line fill="none" stroke="#ED1C24" stroke-width="0.25" stroke-miterlimit="10" x1="-1.663" y1="-11.968" x2="-0.892" y2="-10.418"/>
<line fill="none" stroke="#ED1C24" stroke-width="0.25" stroke-miterlimit="10" x1="-0.892" y1="-10.418" x2="-0.145" y2="-10.648"/>
<line fill="none" stroke="#ED1C24" stroke-width="0.25" stroke-miterlimit="10" x1="-0.145" y1="-10.648" x2="-0.145" y2="-12.77"/>
<line fill="none" stroke="#ED1C24" stroke-width="0.25" stroke-miterlimit="10" x1="-0.145" y1="-12.77" x2="0.027" y2="-13.214"/>
<line fill="none" stroke="#ED1C24" stroke-width="0.25" stroke-miterlimit="10" x1="0.027" y1="-13.214" x2="1.615" y2="-13.214"/>
<line fill="none" stroke="#ED1C24" stroke-width="0.25" stroke-miterlimit="10" x1="1.615" y1="-13.214" x2="2.006" y2="-10.87"/>
<line fill="none" stroke="#ED1C24" stroke-width="0.25" stroke-miterlimit="10" x1="2.006" y1="-10.87" x2="2.612" y2="-10.87"/>
<line fill="none" stroke="#ED1C24" stroke-width="0.25" stroke-miterlimit="10" x1="2.612" y1="-10.87" x2="2.457" y2="-13.214"/>
<line fill="none" stroke="#ED1C24" stroke-width="0.25" stroke-miterlimit="10" x1="2.457" y1="-13.214" x2="3.766" y2="-13.424"/>
<line fill="none" stroke="#ED1C24" stroke-width="0.25" stroke-miterlimit="10" x1="3.766" y1="-13.424" x2="4.264" y2="-11.103"/>
<line fill="none" stroke="#ED1C24" stroke-width="0.25" stroke-miterlimit="10" x1="4.264" y1="-11.103" x2="4.918" y2="-11.103"/>
<line fill="none" stroke="#ED1C24" stroke-width="0.25" stroke-miterlimit="10" x1="4.918" y1="-11.103" x2="4.918" y2="-13.424"/>
<line fill="none" stroke="#ED1C24" stroke-width="0.25" stroke-miterlimit="10" x1="4.918" y1="-13.424" x2="5.572" y2="-13.626"/>
<line fill="none" stroke="#ED1C24" stroke-width="0.25" stroke-miterlimit="10" x1="5.572" y1="-13.626" x2="6.662" y2="-13.525"/>
<line fill="none" stroke="#ED1C24" stroke-width="0.25" stroke-miterlimit="10" x1="6.662" y1="-13.525" x2="6.849" y2="-11.135"/>
<line fill="none" stroke="#ED1C24" stroke-width="0.25" stroke-miterlimit="10" x1="6.849" y1="-11.135" x2="8.904" y2="-11.193"/>
<line fill="none" stroke="#ED1C24" stroke-width="0.25" stroke-miterlimit="10" x1="8.904" y1="-11.193" x2="9.809" y2="-12.084"/>
<line fill="none" stroke="#ED1C24" stroke-width="0.25" stroke-miterlimit="10" x1="9.809" y1="-12.084" x2="9.809" y2="-12.992"/>
<line fill="none" stroke="#ED1C24" stroke-width="0.25" stroke-miterlimit="10" x1="9.809" y1="-12.992" x2="10.057" y2="-13.525"/>
<line fill="none" stroke="#ED1C24" stroke-width="0.25" stroke-miterlimit="10" x1="10.057" y1="-13.525" x2="11.428" y2="-13.319"/>
<line fill="none" stroke="#ED1C24" stroke-width="0.25" stroke-miterlimit="10" x1="11.428" y1="-13.319" x2="11.801" y2="-10.87"/>
<line fill="none" stroke="#ED1C24" stroke-width="0.25" stroke-miterlimit="10" x1="-1.904" y1="-16.913" x2="-0.892" y2="-17.403"/>
<line fill="none" stroke="#ED1C24" stroke-width="0.25" stroke-miterlimit="10" x1="-0.892" y1="-17.403" x2="-0.425" y2="-17.403"/>
<line fill="none" stroke="#ED1C24" stroke-width="0.25" stroke-miterlimit="10" x1="-0.425" y1="-17.403" x2="0.494" y2="-17.403"/>
<line fill="none" stroke="#ED1C24" stroke-width="0.25" stroke-miterlimit="10" x1="0.494" y1="-17.403" x2="0.821" y2="-15.417"/>
<line fill="none" stroke="#ED1C24" stroke-width="0.25" stroke-miterlimit="10" x1="0.658" y1="-15.417" x2="1.615" y2="-15.417"/>
<line fill="none" stroke="#ED1C24" stroke-width="0.25" stroke-miterlimit="10" x1="1.615" y1="-15.417" x2="1.615" y2="-17.536"/>
<line fill="none" stroke="#ED1C24" stroke-width="0.25" stroke-miterlimit="10" x1="1.615" y1="-17.536" x2="3.11" y2="-17.878"/>
<line fill="none" stroke="#ED1C24" stroke-width="0.25" stroke-miterlimit="10" x1="3.11" y1="-17.878" x2="4.264" y2="-17.878"/>
<line fill="none" stroke="#ED1C24" stroke-width="0.25" stroke-miterlimit="10" x1="4.264" y1="-17.878" x2="4.419" y2="-15.675"/>
<line fill="none" stroke="#ED1C24" stroke-width="0.25" stroke-miterlimit="10" x1="4.419" y1="-15.675" x2="5.572" y2="-15.823"/>
<line fill="none" stroke="#ED1C24" stroke-width="0.25" stroke-miterlimit="10" x1="5.572" y1="-15.823" x2="5.82" y2="-17.878"/>
<line fill="none" stroke="#ED1C24" stroke-width="0.25" stroke-miterlimit="10" x1="5.82" y1="-17.878" x2="8.594" y2="-18.034"/>
<line fill="none" stroke="#ED1C24" stroke-width="0.25" stroke-miterlimit="10" x1="8.594" y1="-18.034" x2="9.59" y2="-17.403"/>
<line fill="none" stroke="#ED1C24" stroke-width="0.25" stroke-miterlimit="10" x1="9.59" y1="-17.403" x2="9.356" y2="-14.974"/>
<line fill="none" stroke="#ED1C24" stroke-width="0.25" stroke-miterlimit="10" x1="9.356" y1="-14.974" x2="9.356" y2="-13.259"/>
<line fill="none" stroke="#ED1C24" stroke-width="0.25" stroke-miterlimit="10" x1="9.356" y1="-13.259" x2="8.406" y2="-11.317"/>
<line fill="none" stroke="#ED1C24" stroke-width="0.25" stroke-miterlimit="10" x1="9.59" y1="-17.403" x2="10.586" y2="-17.536"/>
<line fill="none" stroke="#ED1C24" stroke-width="0.25" stroke-miterlimit="10" x1="10.586" y1="-17.536" x2="10.586" y2="-15.986"/>
<line fill="none" stroke="#ED1C24" stroke-width="0.25" stroke-miterlimit="10" x1="10.586" y1="-15.986" x2="11.428" y2="-15.986"/>
<line fill="none" stroke="#ED1C24" stroke-width="0.25" stroke-miterlimit="10" x1="11.428" y1="-15.986" x2="11.428" y2="-17.707"/>
<line fill="none" stroke="#ED1C24" stroke-width="0.25" stroke-miterlimit="10" x1="11.428" y1="-17.707" x2="12.705" y2="-17.719"/>
<line fill="none" stroke="#ED1C24" stroke-width="0.25" stroke-miterlimit="10" x1="12.705" y1="-17.719" x2="13.701" y2="-17.403"/>
<line fill="none" stroke="#ED1C24" stroke-width="0.25" stroke-miterlimit="10" x1="13.701" y1="-17.403" x2="13.701" y2="-16.188"/>
<line fill="none" stroke="#ED1C24" stroke-width="0.25" stroke-miterlimit="10" x1="13.701" y1="-16.188" x2="14.107" y2="-15.986"/>
<line fill="none" stroke="#ED1C24" stroke-width="0.25" stroke-miterlimit="10" x1="14.107" y1="-15.986" x2="14.107" y2="-16.913"/>
<line fill="none" stroke="#ED1C24" stroke-width="0.25" stroke-miterlimit="10" x1="14.107" y1="-16.913" x2="14.668" y2="-16.632"/>
<line fill="none" stroke="#ED1C24" stroke-width="0.25" stroke-miterlimit="10" x1="14.668" y1="-16.632" x2="14.792" y2="-12.439"/>
<line fill="none" stroke="#ED1C24" stroke-width="0.25" stroke-miterlimit="10" x1="11.801" y1="-10.87" x2="13.203" y2="-10.87"/>
<line fill="none" stroke="#ED1C24" stroke-width="0.25" stroke-miterlimit="10" x1="13.203" y1="-10.87" x2="14.107" y2="-12.992"/>
<line fill="none" stroke="#ED1C24" stroke-width="0.25" stroke-miterlimit="10" x1="14.107" y1="-12.992" x2="14.107" y2="-15.986"/>
<line fill="none" stroke="#ED1C24" stroke-width="0.25" stroke-miterlimit="10" x1="14.792" y1="-12.439" x2="13.904" y2="-10.418"/>
<line fill="none" stroke="#ED1C24" stroke-width="0.25" stroke-miterlimit="10" x1="13.904" y1="-10.418" x2="14.107" y2="10.981"/>
<line fill="none" stroke="#ED1C24" stroke-width="0.25" stroke-miterlimit="10" x1="14.107" y1="10.981" x2="14.107" y2="16.273"/>
<line fill="none" stroke="#ED1C24" stroke-width="0.25" stroke-miterlimit="10" x1="8.062" y1="-11.193" x2="8.406" y2="5.764"/>
<line fill="none" stroke="#ED1C24" stroke-width="0.25" stroke-miterlimit="10" x1="8.406" y1="5.764" x2="8.811" y2="16.464"/>
<line fill="none" stroke="#ED1C24" stroke-width="0.25" stroke-miterlimit="10" x1="5.385" y1="1.372" x2="6.227" y2="1.31"/>
<line fill="none" stroke="#ED1C24" stroke-width="0.25" stroke-miterlimit="10" x1="6.227" y1="1.31" x2="6.227" y2="-0.871"/>
<line fill="none" stroke="#ED1C24" stroke-width="0.25" stroke-miterlimit="10" x1="6.227" y1="-0.871" x2="5.805" y2="-1.299"/>
<line fill="none" stroke="#ED1C24" stroke-width="0.25" stroke-miterlimit="10" x1="5.805" y1="-1.299" x2="5.603" y2="-1.299"/>
<line fill="none" stroke="#ED1C24" stroke-width="0.25" stroke-miterlimit="10" x1="5.603" y1="-1.299" x2="5.385" y2="-0.715"/>
<line fill="none" stroke="#ED1C24" stroke-width="0.25" stroke-miterlimit="10" x1="5.385" y1="-0.715" x2="5.385" y2="1.372"/>
<line fill="none" stroke="#ED1C24" stroke-width="0.25" stroke-miterlimit="10" x1="14.107" y1="16.273" x2="8.811" y2="16.464"/>
<line fill="none" stroke="#ED1C24" stroke-width="0.25" stroke-miterlimit="10" x1="8.811" y1="16.464" x2="0.487" y2="16.689"/>
<line fill="none" stroke="#ED1C24" stroke-width="0.25" stroke-miterlimit="10" x1="4.995" y1="-7.653" x2="5.603" y2="-7.443"/>
<line fill="none" stroke="#ED1C24" stroke-width="0.25" stroke-miterlimit="10" x1="5.603" y1="-7.443" x2="5.603" y2="-9.546"/>
<line fill="none" stroke="#ED1C24" stroke-width="0.25" stroke-miterlimit="10" x1="5.603" y1="-9.546" x2="5.494" y2="-9.966"/>
<line fill="none" stroke="#ED1C24" stroke-width="0.25" stroke-miterlimit="10" x1="5.494" y1="-9.966" x2="5.244" y2="-9.966"/>
<line fill="none" stroke="#ED1C24" stroke-width="0.25" stroke-miterlimit="10" x1="5.244" y1="-9.966" x2="4.918" y2="-9.546"/>
<line fill="none" stroke="#ED1C24" stroke-width="0.25" stroke-miterlimit="10" x1="4.918" y1="-9.546" x2="4.995" y2="-7.653"/>
<line fill="none" stroke="#ED1C24" stroke-width="0.25" stroke-miterlimit="10" x1="-5.985" y1="15.386" x2="-9.263" y2="16.27"/>
<line fill="none" stroke="#ED1C24" stroke-width="0.25" stroke-miterlimit="10" x1="-9.263" y1="16.27" x2="-19.138" y2="16.27"/>
<line fill="none" stroke="#ED1C24" stroke-width="0.25" stroke-miterlimit="10" x1="-19.138" y1="16.27" x2="-24.955" y2="17.101"/>
</svg>
