<?xml version="1.0" encoding="utf-8"?>
<!-- Generator: Adobe Illustrator 15.1.0, SVG Export Plug-In . SVG Version: 6.00 Build 0)  -->
<!DOCTYPE svg PUBLIC "-//W3C//DTD SVG 1.1//EN" "http://www.w3.org/Graphics/SVG/1.1/DTD/svg11.dtd">
<svg version="1.1" id="Layer_1" xmlns="http://www.w3.org/2000/svg" xmlns:xlink="http://www.w3.org/1999/xlink" x="0px" y="0px"
	 width="100px" height="100px" viewBox="0 0 100 100" enable-background="new 0 0 100 100" xml:space="preserve">
<line fill="none" stroke="#ED1C24" stroke-width="0.25" stroke-miterlimit="10" x1="-43.713" y1="42.796" x2="-43.713" y2="42.626"/>
<line fill="none" stroke="#ED1C24" stroke-width="0.25" stroke-miterlimit="10" x1="-43.713" y1="43.693" x2="-43.051" y2="42.626"/>
<line fill="none" stroke="#ED1C24" stroke-width="0.25" stroke-miterlimit="10" x1="-43.051" y1="42.626" x2="-45.313" y2="-19.807"/>
<line fill="none" stroke="#ED1C24" stroke-width="0.25" stroke-miterlimit="10" x1="-45.313" y1="-19.807" x2="-46.106" y2="-21.053"/>
<line fill="none" stroke="#ED1C24" stroke-width="0.25" stroke-miterlimit="10" x1="-46.106" y1="-21.053" x2="-41.918" y2="-22.071"/>
<line fill="none" stroke="#ED1C24" stroke-width="0.25" stroke-miterlimit="10" x1="-41.918" y1="-22.071" x2="-36.824" y2="-22.978"/>
<line fill="none" stroke="#ED1C24" stroke-width="0.25" stroke-miterlimit="10" x1="-36.824" y1="-22.978" x2="-32.75" y2="-23.544"/>
<line fill="none" stroke="#ED1C24" stroke-width="0.25" stroke-miterlimit="10" x1="-32.75" y1="-23.544" x2="-27.655" y2="-23.26"/>
<line fill="none" stroke="#ED1C24" stroke-width="0.25" stroke-miterlimit="10" x1="-27.655" y1="-23.26" x2="-17.921" y2="-22.978"/>
<line fill="none" stroke="#ED1C24" stroke-width="0.25" stroke-miterlimit="10" x1="-17.921" y1="-22.978" x2="-13.62" y2="-22.524"/>
<line fill="none" stroke="#ED1C24" stroke-width="0.25" stroke-miterlimit="10" x1="-13.62" y1="-22.524" x2="-9.772" y2="-21.562"/>
<line fill="none" stroke="#ED1C24" stroke-width="0.25" stroke-miterlimit="10" x1="-9.772" y1="-21.562" x2="-10.224" y2="-28.58"/>
<line fill="none" stroke="#ED1C24" stroke-width="0.25" stroke-miterlimit="10" x1="-10.224" y1="-28.58" x2="-12.884" y2="-29.203"/>
<line fill="none" stroke="#ED1C24" stroke-width="0.25" stroke-miterlimit="10" x1="-12.884" y1="-29.203" x2="-12.884" y2="-24.618"/>
<line fill="none" stroke="#ED1C24" stroke-width="0.25" stroke-miterlimit="10" x1="-12.884" y1="-24.618" x2="-15.092" y2="-25.071"/>
<line fill="none" stroke="#ED1C24" stroke-width="0.25" stroke-miterlimit="10" x1="-15.092" y1="-25.071" x2="-15.092" y2="-29.203"/>
<line fill="none" stroke="#ED1C24" stroke-width="0.25" stroke-miterlimit="10" x1="-15.092" y1="-29.203" x2="-17.921" y2="-29.938"/>
<line fill="none" stroke="#ED1C24" stroke-width="0.25" stroke-miterlimit="10" x1="-17.921" y1="-29.938" x2="-19.959" y2="-30.278"/>
<line fill="none" stroke="#ED1C24" stroke-width="0.25" stroke-miterlimit="10" x1="-19.959" y1="-30.278" x2="-21.939" y2="-30.278"/>
<line fill="none" stroke="#ED1C24" stroke-width="0.25" stroke-miterlimit="10" x1="-21.939" y1="-30.278" x2="-21.939" y2="-25.75"/>
<line fill="none" stroke="#ED1C24" stroke-width="0.25" stroke-miterlimit="10" x1="-21.939" y1="-25.75" x2="-25.845" y2="-25.75"/>
<line fill="none" stroke="#ED1C24" stroke-width="0.25" stroke-miterlimit="10" x1="-25.845" y1="-25.75" x2="-25.845" y2="-30.278"/>
<line fill="none" stroke="#ED1C24" stroke-width="0.25" stroke-miterlimit="10" x1="-25.845" y1="-30.278" x2="-29.185" y2="-30.278"/>
<line fill="none" stroke="#ED1C24" stroke-width="0.25" stroke-miterlimit="10" x1="-29.185" y1="-30.278" x2="-32.184" y2="-30.108"/>
<line fill="none" stroke="#ED1C24" stroke-width="0.25" stroke-miterlimit="10" x1="-32.184" y1="-30.108" x2="-32.184" y2="-25.75"/>
<line fill="none" stroke="#ED1C24" stroke-width="0.25" stroke-miterlimit="10" x1="-32.184" y1="-25.75" x2="-35.919" y2="-25.467"/>
<line fill="none" stroke="#ED1C24" stroke-width="0.25" stroke-miterlimit="10" x1="-35.919" y1="-25.467" x2="-36.258" y2="-29.571"/>
<line fill="none" stroke="#ED1C24" stroke-width="0.25" stroke-miterlimit="10" x1="-36.258" y1="-29.571" x2="-36.824" y2="-30.193"/>
<line fill="none" stroke="#ED1C24" stroke-width="0.25" stroke-miterlimit="10" x1="-36.824" y1="-30.193" x2="-44.012" y2="-28.892"/>
<line fill="none" stroke="#ED1C24" stroke-width="0.25" stroke-miterlimit="10" x1="-44.012" y1="-28.892" x2="-43.504" y2="-24.053"/>
<line fill="none" stroke="#ED1C24" stroke-width="0.25" stroke-miterlimit="10" x1="-43.504" y1="-24.053" x2="-44.748" y2="-24.053"/>
<line fill="none" stroke="#ED1C24" stroke-width="0.25" stroke-miterlimit="10" x1="-44.748" y1="-24.053" x2="-45.313" y2="-28.014"/>
<line fill="none" stroke="#ED1C24" stroke-width="0.25" stroke-miterlimit="10" x1="-45.032" y1="-28.014" x2="-46.559" y2="-27.52"/>
<line fill="none" stroke="#ED1C24" stroke-width="0.25" stroke-miterlimit="10" x1="-46.559" y1="-27.52" x2="-46.106" y2="-21.053"/>
<line fill="none" stroke="#ED1C24" stroke-width="0.25" stroke-miterlimit="10" x1="-21.939" y1="-30.618" x2="-22.393" y2="-35.825"/>
<line fill="none" stroke="#ED1C24" stroke-width="0.25" stroke-miterlimit="10" x1="-22.393" y1="-35.825" x2="-19.563" y2="-36.164"/>
<line fill="none" stroke="#ED1C24" stroke-width="0.25" stroke-miterlimit="10" x1="-19.563" y1="-36.164" x2="-16.506" y2="-36.164"/>
<line fill="none" stroke="#ED1C24" stroke-width="0.25" stroke-miterlimit="10" x1="-16.506" y1="-36.164" x2="-16.506" y2="-32.655"/>
<line fill="none" stroke="#ED1C24" stroke-width="0.25" stroke-miterlimit="10" x1="-16.506" y1="-32.655" x2="-14.242" y2="-32.655"/>
<line fill="none" stroke="#ED1C24" stroke-width="0.25" stroke-miterlimit="10" x1="-14.242" y1="-32.655" x2="-14.526" y2="-36.164"/>
<line fill="none" stroke="#ED1C24" stroke-width="0.25" stroke-miterlimit="10" x1="-14.526" y1="-36.164" x2="-12.545" y2="-35.825"/>
<line fill="none" stroke="#ED1C24" stroke-width="0.25" stroke-miterlimit="10" x1="-12.545" y1="-35.825" x2="-12.261" y2="-30.278"/>
<line fill="none" stroke="#ED1C24" stroke-width="0.25" stroke-miterlimit="10" x1="-12.261" y1="-30.278" x2="-13.62" y2="-30.618"/>
<line fill="none" stroke="#ED1C24" stroke-width="0.25" stroke-miterlimit="10" x1="-13.62" y1="-30.618" x2="-18.939" y2="-30.618"/>
<line fill="none" stroke="#ED1C24" stroke-width="0.25" stroke-miterlimit="10" x1="-18.939" y1="-30.618" x2="-19.563" y2="-30.447"/>
<line fill="none" stroke="#ED1C24" stroke-width="0.25" stroke-miterlimit="10" x1="-12.261" y1="-30.278" x2="-12.884" y2="-29.203"/>
<line fill="none" stroke="#ED1C24" stroke-width="0.25" stroke-miterlimit="10" x1="-10.464" y1="-21.735" x2="-9.998" y2="-5.829"/>
<line fill="none" stroke="#ED1C24" stroke-width="0.25" stroke-miterlimit="10" x1="-26.693" y1="8.604" x2="-25.505" y2="8.547"/>
<line fill="none" stroke="#ED1C24" stroke-width="0.25" stroke-miterlimit="10" x1="-25.505" y1="8.547" x2="-25.505" y2="4.585"/>
<line fill="none" stroke="#ED1C24" stroke-width="0.25" stroke-miterlimit="10" x1="-25.505" y1="4.585" x2="-26.1" y2="3.228"/>
<line fill="none" stroke="#ED1C24" stroke-width="0.25" stroke-miterlimit="10" x1="-26.1" y1="3.228" x2="-26.693" y2="3.228"/>
<line fill="none" stroke="#ED1C24" stroke-width="0.25" stroke-miterlimit="10" x1="-26.693" y1="3.228" x2="-26.693" y2="3.906"/>
<line fill="none" stroke="#ED1C24" stroke-width="0.25" stroke-miterlimit="10" x1="-26.693" y1="3.906" x2="-26.693" y2="5.264"/>
<line fill="none" stroke="#ED1C24" stroke-width="0.25" stroke-miterlimit="10" x1="-26.693" y1="5.264" x2="-26.693" y2="8.604"/>
<line fill="none" stroke="#ED1C24" stroke-width="0.25" stroke-miterlimit="10" x1="-28.279" y1="26.205" x2="-28.279" y2="23.035"/>
<line fill="none" stroke="#ED1C24" stroke-width="0.25" stroke-miterlimit="10" x1="-28.279" y1="23.035" x2="-27.826" y2="21.393"/>
<line fill="none" stroke="#ED1C24" stroke-width="0.25" stroke-miterlimit="10" x1="-27.826" y1="21.393" x2="-27.317" y2="21.393"/>
<line fill="none" stroke="#ED1C24" stroke-width="0.25" stroke-miterlimit="10" x1="-27.317" y1="21.393" x2="-26.693" y2="22.526"/>
<line fill="none" stroke="#ED1C24" stroke-width="0.25" stroke-miterlimit="10" x1="-26.693" y1="22.526" x2="-26.693" y2="25.356"/>
<line fill="none" stroke="#ED1C24" stroke-width="0.25" stroke-miterlimit="10" x1="-26.693" y1="25.356" x2="-26.693" y2="26.205"/>
<line fill="none" stroke="#ED1C24" stroke-width="0.25" stroke-miterlimit="10" x1="-26.693" y1="26.205" x2="-28.279" y2="26.205"/>
<line fill="none" stroke="#ED1C24" stroke-width="0.25" stroke-miterlimit="10" x1="-43.382" y1="43.693" x2="-42.088" y2="44.033"/>
<line fill="none" stroke="#ED1C24" stroke-width="0.25" stroke-miterlimit="10" x1="-42.088" y1="44.033" x2="-38.749" y2="44.033"/>
<line fill="none" stroke="#ED1C24" stroke-width="0.25" stroke-miterlimit="10" x1="-38.749" y1="44.033" x2="-30.374" y2="43.863"/>
<line fill="none" stroke="#ED1C24" stroke-width="0.25" stroke-miterlimit="10" x1="-30.374" y1="43.863" x2="-21.884" y2="43.693"/>
<line fill="none" stroke="#ED1C24" stroke-width="0.25" stroke-miterlimit="10" x1="-21.884" y1="43.693" x2="-12.714" y2="43.161"/>
<line fill="none" stroke="#ED1C24" stroke-width="0.25" stroke-miterlimit="10" x1="-12.714" y1="43.161" x2="-10.451" y2="42.711"/>
<line fill="none" stroke="#ED1C24" stroke-width="0.25" stroke-miterlimit="10" x1="-10.451" y1="42.711" x2="-11.072" y2="5.661"/>
<line fill="none" stroke="#ED1C24" stroke-width="0.25" stroke-miterlimit="10" x1="-11.072" y1="5.661" x2="-11.413" y2="-4.414"/>
<line fill="none" stroke="#ED1C24" stroke-width="0.25" stroke-miterlimit="10" x1="-11.413" y1="-4.414" x2="-8.64" y2="-4.866"/>
<line fill="none" stroke="#ED1C24" stroke-width="0.25" stroke-miterlimit="10" x1="-8.64" y1="-4.866" x2="-6.49" y2="-4.866"/>
<line fill="none" stroke="#ED1C24" stroke-width="0.25" stroke-miterlimit="10" x1="-6.49" y1="-4.866" x2="-4.96" y2="-4.866"/>
<line fill="none" stroke="#ED1C24" stroke-width="0.25" stroke-miterlimit="10" x1="-4.96" y1="-4.866" x2="-4.96" y2="1.529"/>
<line fill="none" stroke="#ED1C24" stroke-width="0.25" stroke-miterlimit="10" x1="-4.96" y1="1.529" x2="-4.225" y2="1.87"/>
<line fill="none" stroke="#ED1C24" stroke-width="0.25" stroke-miterlimit="10" x1="-4.225" y1="1.87" x2="-2.641" y2="1.699"/>
<line fill="none" stroke="#ED1C24" stroke-width="0.25" stroke-miterlimit="10" x1="-2.641" y1="1.699" x2="-2.641" y2="-4.866"/>
<line fill="none" stroke="#ED1C24" stroke-width="0.25" stroke-miterlimit="10" x1="-2.641" y1="-4.866" x2="0.189" y2="-5.319"/>
<line fill="none" stroke="#ED1C24" stroke-width="0.25" stroke-miterlimit="10" x1="0.189" y1="-5.319" x2="2.397" y2="-5.319"/>
<line fill="none" stroke="#ED1C24" stroke-width="0.25" stroke-miterlimit="10" x1="2.397" y1="-5.319" x2="4.717" y2="-5.093"/>
<line fill="none" stroke="#ED1C24" stroke-width="0.25" stroke-miterlimit="10" x1="4.717" y1="-5.093" x2="5.057" y2="0.907"/>
<line fill="none" stroke="#ED1C24" stroke-width="0.25" stroke-miterlimit="10" x1="5.057" y1="0.907" x2="6.98" y2="0.907"/>
<line fill="none" stroke="#ED1C24" stroke-width="0.25" stroke-miterlimit="10" x1="6.98" y1="0.907" x2="7.264" y2="-5.319"/>
<line fill="none" stroke="#ED1C24" stroke-width="0.25" stroke-miterlimit="10" x1="7.264" y1="-5.319" x2="8.679" y2="-5.319"/>
<line fill="none" stroke="#ED1C24" stroke-width="0.25" stroke-miterlimit="10" x1="8.679" y1="-5.319" x2="9.755" y2="-5.319"/>
<line fill="none" stroke="#ED1C24" stroke-width="0.25" stroke-miterlimit="10" x1="9.755" y1="-5.319" x2="10.66" y2="16.302"/>
<line fill="none" stroke="#ED1C24" stroke-width="0.25" stroke-miterlimit="10" x1="10.66" y1="16.302" x2="10.66" y2="27.45"/>
<line fill="none" stroke="#ED1C24" stroke-width="0.25" stroke-miterlimit="10" x1="10.66" y1="27.45" x2="10.207" y2="36.958"/>
<line fill="none" stroke="#ED1C24" stroke-width="0.25" stroke-miterlimit="10" x1="10.207" y1="36.958" x2="10.66" y2="41.147"/>
<line fill="none" stroke="#ED1C24" stroke-width="0.25" stroke-miterlimit="10" x1="-6.979" y1="-5.093" x2="-6.866" y2="-10.866"/>
<line fill="none" stroke="#ED1C24" stroke-width="0.25" stroke-miterlimit="10" x1="-6.866" y1="-10.866" x2="-3.66" y2="-11.544"/>
<line fill="none" stroke="#ED1C24" stroke-width="0.25" stroke-miterlimit="10" x1="-3.66" y1="-11.544" x2="0.831" y2="-11.81"/>
<line fill="none" stroke="#ED1C24" stroke-width="0.25" stroke-miterlimit="10" x1="0.831" y1="-11.81" x2="4.886" y2="-12.073"/>
<line fill="none" stroke="#ED1C24" stroke-width="0.25" stroke-miterlimit="10" x1="4.886" y1="-12.073" x2="9.509" y2="-11.941"/>
<line fill="none" stroke="#ED1C24" stroke-width="0.25" stroke-miterlimit="10" x1="9.755" y1="-5.319" x2="9.509" y2="-11.941"/>
<line fill="none" stroke="#ED1C24" stroke-width="0.25" stroke-miterlimit="10" x1="9.509" y1="-11.941" x2="9.509" y2="-18.337"/>
<line fill="none" stroke="#ED1C24" stroke-width="0.25" stroke-miterlimit="10" x1="9.509" y1="-18.337" x2="4.886" y2="-18.637"/>
<line fill="none" stroke="#ED1C24" stroke-width="0.25" stroke-miterlimit="10" x1="4.886" y1="-18.637" x2="4.717" y2="-14.186"/>
<line fill="none" stroke="#ED1C24" stroke-width="0.25" stroke-miterlimit="10" x1="4.717" y1="-14.186" x2="3.246" y2="-13.783"/>
<line fill="none" stroke="#ED1C24" stroke-width="0.25" stroke-miterlimit="10" x1="3.246" y1="-13.783" x2="2.604" y2="-13.984"/>
<line fill="none" stroke="#ED1C24" stroke-width="0.25" stroke-miterlimit="10" x1="2.604" y1="-13.984" x2="2.604" y2="-18.637"/>
<line fill="none" stroke="#ED1C24" stroke-width="0.25" stroke-miterlimit="10" x1="2.604" y1="-18.637" x2="0.453" y2="-18.486"/>
<line fill="none" stroke="#ED1C24" stroke-width="0.25" stroke-miterlimit="10" x1="0.453" y1="-18.486" x2="-1.772" y2="-18.072"/>
<line fill="none" stroke="#ED1C24" stroke-width="0.25" stroke-miterlimit="10" x1="-1.772" y1="-18.072" x2="-1.772" y2="-14.45"/>
<line fill="none" stroke="#ED1C24" stroke-width="0.25" stroke-miterlimit="10" x1="-1.772" y1="-14.45" x2="-2.15" y2="-13.882"/>
<line fill="none" stroke="#ED1C24" stroke-width="0.25" stroke-miterlimit="10" x1="-2.15" y1="-13.882" x2="-3.433" y2="-13.882"/>
<line fill="none" stroke="#ED1C24" stroke-width="0.25" stroke-miterlimit="10" x1="-3.433" y1="-13.882" x2="-3.66" y2="-18.28"/>
<line fill="none" stroke="#ED1C24" stroke-width="0.25" stroke-miterlimit="10" x1="-3.66" y1="-18.28" x2="-7.564" y2="-17.469"/>
<line fill="none" stroke="#ED1C24" stroke-width="0.25" stroke-miterlimit="10" x1="-7.564" y1="-17.469" x2="-7.564" y2="-14.827"/>
<line fill="none" stroke="#ED1C24" stroke-width="0.25" stroke-miterlimit="10" x1="-7.564" y1="-14.827" x2="-7.884" y2="-12.073"/>
<line fill="none" stroke="#ED1C24" stroke-width="0.25" stroke-miterlimit="10" x1="-7.884" y1="-12.073" x2="-6.866" y2="-10.866"/>
<line fill="none" stroke="#ED1C24" stroke-width="0.25" stroke-miterlimit="10" x1="9.509" y1="-18.337" x2="10.641" y2="-18.337"/>
<line fill="none" stroke="#ED1C24" stroke-width="0.25" stroke-miterlimit="10" x1="10.641" y1="-18.337" x2="10.301" y2="-23.505"/>
<line fill="none" stroke="#ED1C24" stroke-width="0.25" stroke-miterlimit="10" x1="10.301" y1="-23.505" x2="9.755" y2="-25.071"/>
<line fill="none" stroke="#ED1C24" stroke-width="0.25" stroke-miterlimit="10" x1="9.755" y1="-25.241" x2="12.452" y2="-25.769"/>
<line fill="none" stroke="#ED1C24" stroke-width="0.25" stroke-miterlimit="10" x1="9.509" y1="-18.337" x2="9.509" y2="-19.393"/>
<line fill="none" stroke="#ED1C24" stroke-width="0.25" stroke-miterlimit="10" x1="9.509" y1="-19.393" x2="8.868" y2="-19.807"/>
<line fill="none" stroke="#ED1C24" stroke-width="0.25" stroke-miterlimit="10" x1="8.868" y1="-19.807" x2="8.868" y2="-20.6"/>
<line fill="none" stroke="#ED1C24" stroke-width="0.25" stroke-miterlimit="10" x1="8.868" y1="-20.6" x2="7.736" y2="-21.279"/>
<line fill="none" stroke="#ED1C24" stroke-width="0.25" stroke-miterlimit="10" x1="7.736" y1="-21.279" x2="7.736" y2="-22.75"/>
<line fill="none" stroke="#ED1C24" stroke-width="0.25" stroke-miterlimit="10" x1="7.736" y1="-22.75" x2="7.198" y2="-23.505"/>
<line fill="none" stroke="#ED1C24" stroke-width="0.25" stroke-miterlimit="10" x1="7.198" y1="-23.505" x2="6.905" y2="-33.542"/>
<line fill="none" stroke="#ED1C24" stroke-width="0.25" stroke-miterlimit="10" x1="6.905" y1="-33.542" x2="6.378" y2="-34.259"/>
<line fill="none" stroke="#ED1C24" stroke-width="0.25" stroke-miterlimit="10" x1="6.378" y1="-34.259" x2="7.052" y2="-35.089"/>
<line fill="none" stroke="#ED1C24" stroke-width="0.25" stroke-miterlimit="10" x1="7.052" y1="-35.089" x2="9.755" y2="-35.466"/>
<line fill="none" stroke="#ED1C24" stroke-width="0.25" stroke-miterlimit="10" x1="9.755" y1="-35.466" x2="10.076" y2="-31.278"/>
<line fill="none" stroke="#ED1C24" stroke-width="0.25" stroke-miterlimit="10" x1="10.076" y1="-31.278" x2="11.104" y2="-30.787"/>
<line fill="none" stroke="#ED1C24" stroke-width="0.25" stroke-miterlimit="10" x1="11.104" y1="-30.787" x2="11.961" y2="-30.787"/>
<line fill="none" stroke="#ED1C24" stroke-width="0.25" stroke-miterlimit="10" x1="11.961" y1="-30.787" x2="12.264" y2="-25.769"/>
<line fill="none" stroke="#ED1C24" stroke-width="0.25" stroke-miterlimit="10" x1="12.264" y1="-25.769" x2="12.64" y2="-24.618"/>
<line fill="none" stroke="#ED1C24" stroke-width="0.25" stroke-miterlimit="10" x1="12.64" y1="-24.618" x2="13.093" y2="-23.505"/>
<line fill="none" stroke="#ED1C24" stroke-width="0.25" stroke-miterlimit="10" x1="13.093" y1="-23.505" x2="13.659" y2="-22.978"/>
<line fill="none" stroke="#ED1C24" stroke-width="0.25" stroke-miterlimit="10" x1="13.659" y1="-22.978" x2="14.301" y2="-20.94"/>
<line fill="none" stroke="#ED1C24" stroke-width="0.25" stroke-miterlimit="10" x1="14.301" y1="-20.94" x2="15.093" y2="-10.449"/>
<line fill="none" stroke="#ED1C24" stroke-width="0.25" stroke-miterlimit="10" x1="15.093" y1="-10.449" x2="15.357" y2="3.737"/>
<line fill="none" stroke="#ED1C24" stroke-width="0.25" stroke-miterlimit="10" x1="15.357" y1="3.737" x2="15.697" y2="16.302"/>
<line fill="none" stroke="#ED1C24" stroke-width="0.25" stroke-miterlimit="10" x1="15.697" y1="16.302" x2="16.074" y2="37.431"/>
<line fill="none" stroke="#ED1C24" stroke-width="0.25" stroke-miterlimit="10" x1="16.074" y1="37.431" x2="15.885" y2="41.147"/>
<line fill="none" stroke="#ED1C24" stroke-width="0.25" stroke-miterlimit="10" x1="-10.451" y1="42.711" x2="-3.433" y2="43.161"/>
<line fill="none" stroke="#ED1C24" stroke-width="0.25" stroke-miterlimit="10" x1="2" y1="16.905" x2="3.283" y2="16.865"/>
<line fill="none" stroke="#ED1C24" stroke-width="0.25" stroke-miterlimit="10" x1="3.283" y1="16.865" x2="3.283" y2="12.526"/>
<line fill="none" stroke="#ED1C24" stroke-width="0.25" stroke-miterlimit="10" x1="3.283" y1="12.526" x2="2.982" y2="11.774"/>
<line fill="none" stroke="#ED1C24" stroke-width="0.25" stroke-miterlimit="10" x1="2.982" y1="11.774" x2="2.339" y2="11.584"/>
<line fill="none" stroke="#ED1C24" stroke-width="0.25" stroke-miterlimit="10" x1="2.339" y1="11.584" x2="2" y2="12.152"/>
<line fill="none" stroke="#ED1C24" stroke-width="0.25" stroke-miterlimit="10" x1="2" y1="12.152" x2="2" y2="16.905"/>
<line fill="none" stroke="#ED1C24" stroke-width="0.25" stroke-miterlimit="10" x1="7.131" y1="28.036" x2="8.528" y2="27.96"/>
<line fill="none" stroke="#ED1C24" stroke-width="0.25" stroke-miterlimit="10" x1="8.528" y1="27.96" x2="8.528" y2="24.185"/>
<line fill="none" stroke="#ED1C24" stroke-width="0.25" stroke-miterlimit="10" x1="8.528" y1="24.185" x2="8.263" y2="22.488"/>
<line fill="none" stroke="#ED1C24" stroke-width="0.25" stroke-miterlimit="10" x1="8.263" y1="22.488" x2="7.66" y2="22.15"/>
<line fill="none" stroke="#ED1C24" stroke-width="0.25" stroke-miterlimit="10" x1="7.66" y1="22.15" x2="7.131" y2="22.715"/>
<line fill="none" stroke="#ED1C24" stroke-width="0.25" stroke-miterlimit="10" x1="7.131" y1="22.715" x2="7.131" y2="28.036"/>
<line fill="none" stroke="#ED1C24" stroke-width="0.25" stroke-miterlimit="10" x1="34.582" y1="41.147" x2="34.109" y2="-22.75"/>
<line fill="none" stroke="#ED1C24" stroke-width="0.25" stroke-miterlimit="10" x1="34.109" y1="-22.75" x2="31.732" y2="-22.75"/>
<line fill="none" stroke="#ED1C24" stroke-width="0.25" stroke-miterlimit="10" x1="31.732" y1="-22.75" x2="30.827" y2="-27.919"/>
<line fill="none" stroke="#ED1C24" stroke-width="0.25" stroke-miterlimit="10" x1="30.827" y1="-27.919" x2="30.205" y2="-28.524"/>
<line fill="none" stroke="#ED1C24" stroke-width="0.25" stroke-miterlimit="10" x1="30.205" y1="-28.524" x2="27.166" y2="-28.278"/>
<line fill="none" stroke="#ED1C24" stroke-width="0.25" stroke-miterlimit="10" x1="27.166" y1="-28.278" x2="26.828" y2="-27.919"/>
<line fill="none" stroke="#ED1C24" stroke-width="0.25" stroke-miterlimit="10" x1="26.828" y1="-27.919" x2="26.997" y2="-22.411"/>
<line fill="none" stroke="#ED1C24" stroke-width="0.25" stroke-miterlimit="10" x1="26.997" y1="-22.411" x2="25.242" y2="-22.411"/>
<line fill="none" stroke="#ED1C24" stroke-width="0.25" stroke-miterlimit="10" x1="25.242" y1="-22.411" x2="24.752" y2="-27.542"/>
<line fill="none" stroke="#ED1C24" stroke-width="0.25" stroke-miterlimit="10" x1="24.752" y1="-27.542" x2="24.262" y2="-28.278"/>
<line fill="none" stroke="#ED1C24" stroke-width="0.25" stroke-miterlimit="10" x1="24.262" y1="-28.278" x2="22.563" y2="-28.401"/>
<line fill="none" stroke="#ED1C24" stroke-width="0.25" stroke-miterlimit="10" x1="22.563" y1="-28.401" x2="21.658" y2="-27.542"/>
<line fill="none" stroke="#ED1C24" stroke-width="0.25" stroke-miterlimit="10" x1="21.658" y1="-27.542" x2="21.658" y2="-21.656"/>
<line fill="none" stroke="#ED1C24" stroke-width="0.25" stroke-miterlimit="10" x1="21.658" y1="-21.656" x2="20.036" y2="-21.656"/>
<line fill="none" stroke="#ED1C24" stroke-width="0.25" stroke-miterlimit="10" x1="20.036" y1="-21.656" x2="19.508" y2="-26.977"/>
<line fill="none" stroke="#ED1C24" stroke-width="0.25" stroke-miterlimit="10" x1="19.508" y1="-26.977" x2="18.338" y2="-27.542"/>
<line fill="none" stroke="#ED1C24" stroke-width="0.25" stroke-miterlimit="10" x1="18.338" y1="-27.542" x2="17.018" y2="-27.542"/>
<line fill="none" stroke="#ED1C24" stroke-width="0.25" stroke-miterlimit="10" x1="17.018" y1="-27.542" x2="15.734" y2="-26.977"/>
<line fill="none" stroke="#ED1C24" stroke-width="0.25" stroke-miterlimit="10" x1="15.734" y1="-26.977" x2="16.377" y2="-21.656"/>
<line fill="none" stroke="#ED1C24" stroke-width="0.25" stroke-miterlimit="10" x1="16.377" y1="-21.656" x2="15.734" y2="-21.355"/>
<line fill="none" stroke="#ED1C24" stroke-width="0.25" stroke-miterlimit="10" x1="15.734" y1="-21.355" x2="14.169" y2="-21.355"/>
<line fill="none" stroke="#ED1C24" stroke-width="0.25" stroke-miterlimit="10" x1="11.961" y1="-30.787" x2="11.961" y2="-36.749"/>
<line fill="none" stroke="#ED1C24" stroke-width="0.25" stroke-miterlimit="10" x1="11.961" y1="-36.749" x2="14.169" y2="-37.203"/>
<line fill="none" stroke="#ED1C24" stroke-width="0.25" stroke-miterlimit="10" x1="14.169" y1="-37.203" x2="17.018" y2="-37.203"/>
<line fill="none" stroke="#ED1C24" stroke-width="0.25" stroke-miterlimit="10" x1="17.018" y1="-37.203" x2="17.678" y2="-37.203"/>
<line fill="none" stroke="#ED1C24" stroke-width="0.25" stroke-miterlimit="10" x1="17.348" y1="-37.203" x2="17.348" y2="-32.372"/>
<line fill="none" stroke="#ED1C24" stroke-width="0.25" stroke-miterlimit="10" x1="17.348" y1="-32.372" x2="20.338" y2="-32.372"/>
<line fill="none" stroke="#ED1C24" stroke-width="0.25" stroke-miterlimit="10" x1="20.338" y1="-32.372" x2="20.036" y2="-37.805"/>
<line fill="none" stroke="#ED1C24" stroke-width="0.25" stroke-miterlimit="10" x1="20.036" y1="-37.805" x2="25.242" y2="-38.333"/>
<line fill="none" stroke="#ED1C24" stroke-width="0.25" stroke-miterlimit="10" x1="25.242" y1="-38.333" x2="25.771" y2="-32.9"/>
<line fill="none" stroke="#ED1C24" stroke-width="0.25" stroke-miterlimit="10" x1="25.771" y1="-32.9" x2="28.687" y2="-33.126"/>
<line fill="none" stroke="#ED1C24" stroke-width="0.25" stroke-miterlimit="10" x1="28.687" y1="-33.126" x2="28.687" y2="-38.333"/>
<line fill="none" stroke="#ED1C24" stroke-width="0.25" stroke-miterlimit="10" x1="28.687" y1="-38.333" x2="33.92" y2="-38.56"/>
<line fill="none" stroke="#ED1C24" stroke-width="0.25" stroke-miterlimit="10" x1="33.92" y1="-38.56" x2="36.147" y2="-38.07"/>
<line fill="none" stroke="#ED1C24" stroke-width="0.25" stroke-miterlimit="10" x1="36.147" y1="-38.07" x2="38.751" y2="-35.919"/>
<line fill="none" stroke="#ED1C24" stroke-width="0.25" stroke-miterlimit="10" x1="38.751" y1="-35.919" x2="38.9" y2="-26.033"/>
<line fill="none" stroke="#ED1C24" stroke-width="0.25" stroke-miterlimit="10" x1="38.9" y1="-26.033" x2="36.147" y2="-25.335"/>
<line fill="none" stroke="#ED1C24" stroke-width="0.25" stroke-miterlimit="10" x1="36.147" y1="-25.335" x2="34.109" y2="-22.599"/>
<line fill="none" stroke="#ED1C24" stroke-width="0.25" stroke-miterlimit="10" x1="20.036" y1="-11.469" x2="21.658" y2="-11.469"/>
<line fill="none" stroke="#ED1C24" stroke-width="0.25" stroke-miterlimit="10" x1="21.658" y1="-11.469" x2="21.413" y2="-15.695"/>
<line fill="none" stroke="#ED1C24" stroke-width="0.25" stroke-miterlimit="10" x1="21.413" y1="-15.695" x2="20.847" y2="-16.75"/>
<line fill="none" stroke="#ED1C24" stroke-width="0.25" stroke-miterlimit="10" x1="20.847" y1="-16.75" x2="20.036" y2="-16.865"/>
<line fill="none" stroke="#ED1C24" stroke-width="0.25" stroke-miterlimit="10" x1="20.036" y1="-16.865" x2="19.772" y2="-15.138"/>
<line fill="none" stroke="#ED1C24" stroke-width="0.25" stroke-miterlimit="10" x1="19.772" y1="-15.138" x2="19.772" y2="-11.469"/>
<line fill="none" stroke="#ED1C24" stroke-width="0.25" stroke-miterlimit="10" x1="27.166" y1="5.888" x2="27.166" y2="1.529"/>
<line fill="none" stroke="#ED1C24" stroke-width="0.25" stroke-miterlimit="10" x1="27.166" y1="1.529" x2="27.582" y2="0.567"/>
<line fill="none" stroke="#ED1C24" stroke-width="0.25" stroke-miterlimit="10" x1="27.582" y1="0.567" x2="28.318" y2="0.567"/>
<line fill="none" stroke="#ED1C24" stroke-width="0.25" stroke-miterlimit="10" x1="28.318" y1="0.567" x2="28.997" y2="1.529"/>
<line fill="none" stroke="#ED1C24" stroke-width="0.25" stroke-miterlimit="10" x1="28.997" y1="1.529" x2="28.997" y2="5.888"/>
<line fill="none" stroke="#ED1C24" stroke-width="0.25" stroke-miterlimit="10" x1="28.997" y1="5.888" x2="27.166" y2="5.888"/>
<line fill="none" stroke="#ED1C24" stroke-width="0.25" stroke-miterlimit="10" x1="34.582" y1="41.147" x2="10.66" y2="41.147"/>
<line fill="none" stroke="#ED1C24" stroke-width="0.25" stroke-miterlimit="10" x1="10.66" y1="41.147" x2="-3.433" y2="43.161"/>
</svg>
